<svg viewBox="-38.336 221.497 673.012 568.228" height="20" fill="var(--bs-black)" xmlns="http://www.w3.org/2000/svg" class="mr-2">
    <path d="M 144.162 503.61 L 82.718 565.504 L 20.682 503.61 L 82.696 441.166 L 144.162 503.61 Z M 294.374 352.355 L 400.202 458.919 L 462.239 396.497 L 294.374 228.017 L 126.509 397.047 L 188.546 459.469 L 294.374 352.355 Z M 506.053 441.166 L 444.586 503.61 L 506.6 566.056 L 568.591 503.61 L 506.053 441.166 Z M 294.374 654.866 L 188.546 547.751 L 126.509 610.197 L 294.374 779.205 L 462.239 610.173 L 400.202 547.751 L 294.374 654.866 Z M 294.374 565.527 L 356.388 503.06 L 294.374 441.189 L 232.36 503.61 L 294.374 565.504 L 294.374 565.527 Z M 368.186 659.084 L 416.003 625.929 C 416.003 585.554 394.028 634.173 394.028 634.173" style="" transform="matrix(0.9999999999999999, 0, 0, 0.9999999999999999, 0, 0)"></path>
</svg>