<svg viewBox="814.394 98.487 208.525 211.564" xmlns="http://www.w3.org/2000/svg">
  <ellipse style="stroke-width: 10px; stroke-dashoffset: -10px; stroke-miterlimit: 9.29; paint-order: fill; stroke: rgb(155, 175, 248); fill-opacity: 0.62; fill-rule: nonzero; fill: rgb(255, 255, 255);" cx="918.564" cy="205.035" rx="93.708" ry="97.119" transform="matrix(0.9999999999999999, 0, 0, 0.9999999999999999, -1.1368683772161603e-13, 0)"></ellipse>
  <path d="M 920.665 131.369 C 925.226 132.955 929.303 134.846 932.551 138.478 C 935.344 140.976 937.345 141.024 941.04 141.369 C 947.5 142.2 951.146 143.707 955.669 148.486 C 958.168 152.096 958.999 155.464 960.04 159.681 C 961.861 166.364 963.8 171.297 968.665 176.369 C 970.232 178.051 971.794 179.739 973.352 181.431 C 974.472 182.593 974.472 182.593 975.614 183.779 C 980.376 189.793 981.108 195.248 980.915 202.619 C 980.907 203.821 980.907 203.821 980.899 205.048 C 980.854 208.387 980.727 211.183 979.665 214.369 C 978.673 223.843 981.262 231.517 984.821 240.185 C 987.962 248.072 989.119 255.406 986.602 263.681 C 984.107 269.387 979.566 272.256 974.352 275.306 C 970.665 275.369 970.665 275.369 968.563 273.755 C 966.923 272.167 965.292 270.568 963.669 268.962 C 956.231 262.54 946.135 258.063 936.485 256.329 C 934.665 255.369 934.665 255.369 933.473 252.829 C 932.524 248.765 932.011 244.767 931.602 240.619 C 931.253 235.333 931.253 235.333 929.665 230.369 C 929.217 230.923 928.77 231.477 928.309 232.048 C 921.964 239.652 921.964 239.652 917.665 240.369 C 912.85 240.256 908.915 239.72 904.665 237.369 C 904.574 238.707 904.574 238.707 904.481 240.072 C 904.397 241.242 904.314 242.413 904.227 243.619 C 904.146 244.779 904.065 245.939 903.981 247.134 C 903.487 252.187 903.487 252.187 902.665 254.369 C 901.029 255.322 901.029 255.322 898.903 255.974 C 898.12 256.231 897.337 256.488 896.53 256.752 C 895.688 257.018 894.845 257.283 893.977 257.556 C 884.019 260.934 873.898 265.432 866.665 273.369 C 861.663 272.089 859.021 270.284 855.665 266.369 C 852.72 261.351 852.921 256.278 854.34 250.724 C 854.612 249.823 854.884 248.922 855.165 247.994 C 858.057 238.017 856.565 230.405 853.571 220.599 C 851.781 214.22 852.039 209.364 855.255 203.509 C 857.508 200.088 860.104 196.973 862.762 193.861 C 867.671 187.43 868.091 182.279 868.165 174.431 C 868.235 166.875 868.376 160.896 872.962 154.583 C 877.481 150.61 882.611 148.566 888.246 146.636 C 892.827 144.998 895.408 142.931 898.665 139.369 C 900.203 138.089 901.765 136.837 903.352 135.619 C 904.503 134.729 904.503 134.729 905.676 133.822 C 910.321 130.427 915.085 130.721 920.665 131.369 Z" fill="#232272" transform="matrix(0.9999999999999999, 0, 0, 0.9999999999999999, -1.1368683772161603e-13, 0)"></path>
  <path d="M 928.665 156.369 C 929.701 157.923 930.731 159.483 931.673 161.096 C 934.569 166.017 937.951 170.068 941.895 174.193 C 945.538 178.672 945.905 182.506 945.79 188.182 C 945.772 189.343 945.754 190.504 945.735 191.701 C 945.712 192.581 945.689 193.462 945.665 194.369 C 946.469 194.513 947.274 194.658 948.103 194.807 C 950.665 195.369 950.665 195.369 951.665 196.369 C 952.13 200.942 952.383 204.053 949.54 207.807 C 946.415 210.592 945.073 211.408 940.954 211.6 C 940.801 212.685 940.512 212.454 940.356 213.56 C 938.614 220.64 932.858 227.299 926.903 231.369 C 922.534 233.321 918.313 233.165 913.665 232.369 C 906.275 229.363 899.781 223.433 896.603 216.057 C 895.101 212.626 894.839 212.453 891.165 210.682 C 890.01 210.248 888.855 209.815 887.665 209.369 C 884.502 206.531 883.402 204.408 883.165 200.244 C 883.665 196.369 883.665 196.369 885.228 194.494 C 887.665 193.369 887.665 193.369 891.165 192.494 C 895.371 191.142 896.263 190.014 898.665 186.369 C 899.483 183.837 900.157 181.451 900.728 178.869 C 902.102 172.807 903.463 167.316 908.978 163.807 C 913.9 160.884 919.28 159.591 924.786 158.166 C 927.54 157.658 927.54 157.658 928.665 156.369 Z" fill="#BFD2F4" transform="matrix(0.9999999999999999, 0, 0, 0.9999999999999999, -1.1368683772161603e-13, 0)"></path>
  <path d="M 929.665 229.369 C 931.729 232.465 932.06 233.88 932.517 237.474 C 932.645 238.457 932.774 239.44 932.907 240.453 C 933.034 241.477 933.16 242.501 933.29 243.557 C 933.491 245.11 933.491 245.11 933.696 246.695 C 934.026 249.252 934.347 251.811 934.665 254.369 C 937.965 255.359 941.111 257.505 944.511 258.525 C 944.776 263.926 944.931 262.77 944.665 265.369 C 943.665 266.369 942.665 267.369 941.665 268.369 C 941.43 271.056 941.579 273.666 941.665 276.369 C 941.17 277.359 941.17 277.359 940.665 278.369 C 938.343 278.776 936.008 279.113 933.665 279.369 C 933.521 280.338 933.376 281.308 933.228 282.307 C 932.665 285.369 932.665 285.369 931.665 286.369 C 930.531 286.493 929.396 286.617 928.228 286.744 C 927.052 286.95 925.876 287.157 924.665 287.369 C 924.005 288.359 923.345 289.349 922.665 290.369 C 919.65 290.963 916.701 290.795 913.665 290.369 C 912.303 289.408 910.966 288.41 909.665 287.369 C 905.998 287.118 905.998 287.118 902.665 287.369 C 902.665 286.709 902.665 286.049 902.665 285.369 C 902.005 285.369 901.345 285.369 900.665 285.369 C 900.665 283.389 900.665 281.409 900.665 279.369 C 899.015 279.039 897.365 278.709 895.665 278.369 C 895.665 274.739 895.665 271.109 895.665 267.369 C 895.005 267.369 894.345 267.369 893.665 267.369 C 893.665 264.399 893.665 261.429 893.665 258.369 C 892.675 258.039 894.677 258.339 893.657 257.999 C 895.093 257.493 899.665 254.369 902.665 254.369 C 902.726 253.393 902.786 252.417 902.849 251.412 C 902.932 250.14 903.016 248.867 903.103 247.557 C 903.184 246.292 903.265 245.027 903.349 243.724 C 903.665 240.369 903.665 240.369 904.665 237.369 C 905.634 237.72 906.604 238.07 907.603 238.432 C 912.092 239.686 916.175 239.645 920.665 238.369 C 924.453 236.167 927.247 232.996 929.665 229.369 Z" fill="#C0D3F3" transform="matrix(0.9999999999999999, 0, 0, 0.9999999999999999, -1.1368683772161603e-13, 0)"></path>
  <path d="M 893.822 258.251 C 893.822 261.221 894.57 263.797 894.57 266.857 C 895.23 266.857 894.985 267.369 895.665 267.369 C 895.665 270.999 895.665 274.629 895.665 278.369 C 897.315 278.699 898.965 279.029 900.665 279.369 C 900.665 281.349 901.985 285.369 902.665 285.369 C 902.665 286.029 902.665 286.689 902.665 287.369 C 903.923 287.142 905.181 286.915 906.478 286.682 C 908.622 286.295 908.622 286.295 910.665 286.369 C 911.676 287.358 912.675 288.359 913.665 289.369 C 915.937 289.942 915.937 289.942 918.353 290.057 C 919.161 290.122 919.969 290.188 920.802 290.256 C 921.417 290.293 922.031 290.33 922.665 290.369 C 923.048 289.402 923.048 289.402 923.438 288.416 C 923.843 287.74 924.248 287.065 924.665 286.369 C 928.29 285.619 928.29 285.619 931.665 285.369 C 932.325 283.389 932.985 281.409 933.665 279.369 C 935.975 279.039 938.285 278.709 940.665 278.369 C 940.63 277.682 940.595 276.995 940.56 276.287 C 940.532 275.386 940.505 274.485 940.478 273.557 C 940.425 272.217 940.425 272.217 940.372 270.849 C 940.724 267.873 941.523 267.336 943.665 265.369 C 944.395 261.759 944.228 261.759 944.498 258.369 C 951.022 260.43 963.583 266.932 970.473 274.88 C 970.473 275.54 970.665 275.689 970.665 276.369 C 972.15 276.864 972.15 276.864 973.665 277.369 C 973.603 279.119 973.603 279.119 972.665 281.369 C 970.333 282.941 968.18 284.152 965.665 285.369 C 964.855 285.772 963.956 286.03 963.212 286.592 C 945.852 299.716 889.702 303.958 863.665 278.369 C 863.665 277.049 863.665 275.729 863.665 274.369 C 864.387 274.163 865.109 273.957 865.853 273.744 C 868.869 272.269 869.946 270.702 871.942 268.096 C 877.54 262.485 885.88 258.036 893.822 258.251 Z" fill="#FBFCFC" transform="matrix(0.9999999999999999, 0, 0, 0.9999999999999999, -1.1368683772161603e-13, 0)"></path>
  <path d="M 940.665 156.368 C 941.985 156.368 943.305 156.368 944.665 156.368 C 945.119 157.131 945.573 157.894 946.04 158.681 C 948.084 162.061 950.158 162.687 953.665 164.368 C 958.019 168.505 958.108 174.995 959.038 180.634 C 959.192 181.466 959.346 182.299 959.505 183.157 C 959.696 184.297 959.696 184.297 959.891 185.46 C 960.93 188.02 962.2 188.269 964.665 189.368 C 968.289 194.235 969.817 197.774 969.915 203.806 C 969.941 204.753 969.967 205.7 969.993 206.677 C 969.611 209.808 968.66 210.988 966.665 213.368 C 964.263 220.069 963.66 225.459 966.478 232.056 C 967.939 235.113 969.583 237.691 971.665 240.368 C 973.411 244.811 973.424 250.47 971.665 254.868 C 971.335 255.363 971.005 255.858 970.665 256.368 C 969.675 256.368 968.685 256.368 967.665 256.368 C 967.7 255.751 967.735 255.133 967.77 254.497 C 967.972 248.183 967.037 243.214 964.665 237.368 C 964.005 237.368 963.345 237.368 962.665 237.368 C 962.665 238.028 962.665 238.688 962.665 239.368 C 961.675 239.368 960.685 239.368 959.665 239.368 C 959.562 240.007 959.459 240.647 959.353 241.306 C 959.126 241.986 958.899 242.667 958.665 243.368 C 957.18 243.863 957.18 243.863 955.665 244.368 C 955.665 245.028 955.665 245.688 955.665 246.368 C 955.005 246.368 954.345 246.368 953.665 246.368 C 953.335 248.678 953.005 250.988 952.665 253.368 C 952.005 253.368 951.345 253.368 950.665 253.368 C 950.427 251.9 950.427 251.9 950.185 250.403 C 948.951 243.311 947.64 237.538 943.739 231.376 C 941.989 228.104 941.865 225.039 941.665 221.368 C 941.253 221.863 940.84 222.358 940.415 222.868 C 938.665 224.368 938.665 224.368 934.665 224.368 C 935.295 222.687 935.975 221.025 936.665 219.368 C 936.922 218.705 937.178 218.043 937.442 217.36 C 939.229 213.204 940.012 211.689 944.228 209.618 C 945.362 209.206 946.496 208.793 947.665 208.368 C 949.886 206.434 950.589 205.267 950.837 202.333 C 950.919 200.218 951.285 197.207 950.434 196.599 C 949.824 195.535 947.365 195.048 945.665 194.368 C 945.639 193.522 945.613 192.677 945.587 191.806 C 945.088 181.828 943.65 176.123 936.478 169.118 C 935.783 168.494 935.088 167.87 934.372 167.227 C 932.546 165.238 932.502 163.411 932.111 160.774 C 932.771 160.774 932.985 161.368 933.665 161.368 C 935.29 163.868 935.29 163.868 936.665 166.368 C 939.462 164.3 939.692 163.224 940.353 159.681 C 940.456 158.587 940.559 157.494 940.665 156.368 Z" fill="#202373" transform="matrix(0.9999999999999999, 0, 0, 0.9999999999999999, -1.1368683772161603e-13, 0)"></path>
  <path d="M 920.665 142.369 C 920.335 144.019 920.005 145.669 919.665 147.369 C 918.675 147.554 917.685 147.74 916.665 147.931 C 912.378 149.135 909.781 151.657 906.559 154.626 C 901.724 159.072 897.228 160.993 890.934 162.462 C 887.937 163.659 887.109 164.458 885.665 167.369 C 885.237 170.427 885.198 173.471 885.165 176.556 C 885.089 183.381 884.172 188.993 881.665 195.369 C 882.325 195.369 882.985 195.369 883.665 195.369 C 883.335 198.009 883.005 200.649 882.665 203.369 C 882.335 203.369 882.005 203.369 881.665 203.369 C 881.17 200.894 881.17 200.894 880.665 198.369 C 880.005 199.029 879.345 199.689 878.665 200.369 C 877.675 200.369 876.685 200.369 875.665 200.369 C 875.397 200.967 875.128 201.565 874.852 202.181 C 873.665 204.369 873.665 204.369 872.122 205.677 C 869.536 208.679 870.152 212.013 870.231 215.814 C 871.089 222.848 873.495 230.029 876.665 236.369 C 876.816 238.821 876.896 241.227 876.915 243.681 C 876.953 245.655 876.953 245.655 876.993 247.669 C 876.652 251.511 876.17 253.452 873.665 256.369 C 872.345 256.369 871.025 256.369 869.665 256.369 C 870.54 250.494 870.54 250.494 871.665 249.369 C 872.857 240.443 870.197 233.44 866.665 225.369 C 864.186 219.669 864.257 214.907 865.227 208.869 C 866.869 204.872 868.996 202.486 871.915 199.361 C 877.9 192.547 878.892 186.134 879.094 177.372 C 879.364 170.592 880.671 165.066 884.79 159.494 C 887.604 157.414 888.687 157.014 891.977 156.431 C 897.35 155.478 900.602 152.878 904.665 149.369 C 905.32 148.81 905.974 148.252 906.649 147.677 C 907.847 146.65 909.038 145.614 910.219 144.568 C 913.531 141.82 916.492 142.291 920.665 142.369 Z" fill="#090760" transform="matrix(0.9999999999999999, 0, 0, 0.9999999999999999, -1.1368683772161603e-13, 0)"></path>
  <path d="M 940.665 156.369 C 941.985 156.369 943.305 156.369 944.665 156.369 C 945.118 157.132 945.572 157.895 946.04 158.681 C 948.084 162.062 950.157 162.688 953.665 164.369 C 958.018 168.505 958.108 174.995 959.038 180.634 C 959.192 181.467 959.346 182.3 959.505 183.158 C 959.696 184.298 959.696 184.298 959.891 185.461 C 960.929 188.021 962.199 188.269 964.665 189.369 C 968.289 194.235 969.816 197.774 969.915 203.806 C 969.94 204.753 969.966 205.701 969.993 206.677 C 969.611 209.808 968.66 210.988 966.665 213.369 C 963.751 221.495 964.596 228.222 966.665 236.369 C 965.345 236.369 964.025 236.369 962.665 236.369 C 962.665 235.379 962.665 234.389 962.665 233.369 C 962.005 233.369 961.345 233.369 960.665 233.369 C 959.678 229.392 959.658 225.945 959.977 221.869 C 960.095 220.213 960.095 220.213 960.215 218.525 C 960.847 214.087 962.188 211.084 964.665 207.369 C 965.425 202.729 965.117 199.225 962.915 195.056 C 960.777 192.408 960.777 192.408 958.602 190.369 C 952.788 184.367 953.006 177.298 952.665 169.369 C 951.514 168.935 951.514 168.935 950.34 168.494 C 947.274 167.204 945.114 165.607 942.665 163.369 C 942.665 162.709 942.665 162.049 942.665 161.369 C 942.005 161.369 941.345 161.369 940.665 161.369 C 940.665 159.719 940.665 158.069 940.665 156.369 Z" fill="#07075F" transform="matrix(0.9999999999999999, 0, 0, 0.9999999999999999, -1.1368683772161603e-13, 0)"></path>
  <path d="M 887.665 220.369 C 889.315 220.369 890.965 220.369 892.665 220.369 C 892.63 221.312 892.63 221.312 892.594 222.275 C 892.505 226.525 892.496 230.339 893.727 234.431 C 895.416 240.335 894.603 246.021 891.665 251.369 C 890.675 251.369 889.685 251.369 888.665 251.369 C 888.699 249.957 888.699 249.957 888.735 248.517 C 888.753 247.272 888.771 246.026 888.79 244.744 C 888.824 242.899 888.824 242.899 888.86 241.017 C 888.666 237.398 887.865 234.759 886.665 231.369 C 886.434 228.884 886.434 228.884 886.477 226.619 C 886.484 225.861 886.49 225.103 886.497 224.322 C 886.665 222.369 886.665 222.369 887.665 220.369 Z" fill="#0A0760" transform="matrix(0.9999999999999999, 0, 0, 0.9999999999999999, -1.1368683772161603e-13, 0)"></path>
  <path d="M 944.665 219.369 C 945.325 219.369 945.985 219.369 946.665 219.369 C 946.685 220.42 946.706 221.472 946.727 222.556 C 947.364 228.135 950.32 232.485 953.169 237.22 C 954.785 240.621 955.041 242.655 954.665 246.369 C 953.665 248.556 953.665 248.556 952.665 250.369 C 952.665 251.359 952.665 252.349 952.665 253.369 C 952.005 253.369 951.345 253.369 950.665 253.369 C 950.506 252.39 950.348 251.412 950.184 250.404 C 948.713 241.549 948.713 241.549 944.915 233.494 C 942.373 229.49 942.388 226.731 943.173 222.119 C 943.665 220.369 943.665 220.369 944.665 219.369 Z" fill="#08085F" transform="matrix(0.9999999999999999, 0, 0, 0.9999999999999999, -1.1368683772161603e-13, 0)"></path>
  <path d="M 968.665 241.369 C 971.665 242.369 971.665 242.369 972.665 244.369 C 973.071 252.759 973.071 252.759 970.665 256.369 C 969.675 256.369 968.685 256.369 967.665 256.369 C 967.638 254.056 967.618 251.744 967.602 249.431 C 967.591 248.143 967.579 246.855 967.567 245.529 C 967.665 242.369 967.665 242.369 968.665 241.369 Z" fill="#07075D" transform="matrix(0.9999999999999999, 0, 0, 0.9999999999999999, -1.1368683772161603e-13, 0)"></path>
  <path d="M 964.665 235.369 C 967.579 235.66 968.49 236.163 970.415 238.431 C 970.827 239.07 971.24 239.71 971.665 240.369 C 971.335 241.029 971.005 241.689 970.665 242.369 C 968.602 242.994 968.602 242.994 966.665 243.369 C 965.675 241.059 964.685 238.749 963.665 236.369 C 963.995 236.039 964.325 235.709 964.665 235.369 Z" fill="#15156B" transform="matrix(0.9999999999999999, 0, 0, 0.9999999999999999, -1.1368683772161603e-13, 0)"></path>
  <path d="M 902.821 254.82 C 904.268 257.714 904.214 261.651 904.501 264.847 C 906.072 266.918 905.948 279.549 906.226 276.547 C 907.185 276.764 906.741 277.06 907.72 277.281 C 909.782 277.843 909.782 277.843 910.782 278.843 C 917.251 278.676 923.516 277.359 929.782 275.843 C 930.112 272.873 930.442 269.903 930.782 266.843 C 931.442 266.843 932.102 266.843 932.782 266.843 C 932.761 265.585 932.741 264.327 932.72 263.031 C 932.673 260.202 933.713 257.592 934.63 254.841 C 942.178 256.41 941.176 257.72 944.551 258.845 C 944.817 264.246 945.048 263.244 944.782 265.843 C 943.782 266.843 942.782 267.843 941.782 268.843 C 941.547 271.53 941.696 274.14 941.782 276.843 C 941.452 277.503 941.122 278.163 940.782 278.843 C 938.46 279.25 936.125 279.587 933.782 279.843 C 933.638 280.812 933.493 281.782 933.345 282.781 C 932.782 285.843 932.782 285.843 931.782 286.843 C 930.648 286.967 929.513 287.091 928.345 287.218 C 927.169 287.424 925.993 287.631 924.782 287.843 C 924.122 288.833 923.462 289.823 922.782 290.843 C 918.734 292.434 911.922 290.005 911.035 287.504 C 909.564 286.895 898.155 292.566 900.782 279.843 C 891.733 282.166 895.405 271.722 895.782 267.843 C 894.706 268.259 891.15 264.929 893.782 258.843 C 892.792 258.513 892.747 259.246 891.727 258.906 C 895.904 257.315 898.353 254.607 902.821 254.82 Z" fill="#FDF3D3" transform="matrix(0.9999999999999999, 0, 0, 0.9999999999999999, -1.1368683772161603e-13, 0)"></path>
  <path d="M 901.782 278.843 C 895.832 283.909 891.718 267.974 902.775 271.058 C 904.446 271.105 904.232 275.637 904.232 278.012 C 906.325 278.067 913.332 281.055 909.782 285.843 C 905.632 289.858 900.975 284.567 901.782 278.843 Z" fill="#F4CE74" transform="matrix(0.9999999999999999, 0, 0, 0.9999999999999999, -1.1368683772161603e-13, 0)"></path>
  <path d="M 935.782 257.843 C 942.359 258.42 942.359 258.42 943.782 259.843 C 943.969 262.28 943.969 262.28 943.782 264.843 C 941.782 266.843 941.782 266.843 938.782 267.03 C 935.782 266.843 935.782 266.843 933.782 265.843 C 933.657 262.968 933.657 262.968 933.782 259.843 C 934.442 259.183 935.102 258.523 935.782 257.843 Z" fill="#F6CD70" transform="matrix(0.9999999999999999, 0, 0, 0.9999999999999999, -1.1368683772161603e-13, 0)"></path>
  <path d="M 929.97 277.093 C 931.782 277.843 931.782 277.843 932.782 279.843 C 932.907 282.905 932.907 282.905 932.782 285.843 C 931.782 286.843 931.782 286.843 928.845 286.968 C 925.782 286.843 925.782 286.843 923.782 285.843 C 923.782 283.533 923.782 281.223 923.782 278.843 C 926.057 277.462 927.284 276.786 929.97 277.093 Z" fill="#F4D080" transform="matrix(0.9999999999999999, 0, 0, 0.9999999999999999, -1.1368683772161603e-13, 0)"></path>
  <path fill="#F1D17B" d="M 895.9 258.158 C 904.638 254.721 906.263 267.694 897.157 267.531 C 893.288 267.651 892.903 259.337 895.9 258.158 Z" transform="matrix(0.9999999999999999, 0, 0, 0.9999999999999999, -1.1368683772161603e-13, 0)"></path>
  <path d="M 916.72 280.718 C 919.782 280.843 919.782 280.843 921.782 281.843 C 921.907 284.718 921.907 284.718 921.782 287.843 C 919.782 289.843 919.782 289.843 917.282 290.093 C 914.782 289.843 914.782 289.843 912.782 287.843 C 912.595 284.78 912.595 284.78 912.782 281.843 C 913.782 280.843 913.782 280.843 916.72 280.718 Z" fill="#F3CC73" transform="matrix(0.9999999999999999, 0, 0, 0.9999999999999999, -1.1368683772161603e-13, 0)"></path>
  <path d="M 937.782 268.843 C 939.782 270.843 939.782 270.843 940.032 273.343 C 939.782 275.843 939.782 275.843 937.782 277.843 C 935.282 278.093 935.282 278.093 932.782 277.843 C 930.782 275.843 930.782 275.843 930.657 272.718 C 930.698 271.769 930.739 270.82 930.782 269.843 C 933.295 268.586 934.999 268.634 937.782 268.843 Z" fill="#EFCB78" transform="matrix(0.9999999999999999, 0, 0, 0.9999999999999999, -1.1368683772161603e-13, 0)"></path>
  <path d="M 898.372 277.521 C 895.573 273.462 899.779 272.075 902.521 272.667 C 904.004 275.625 901.62 278.547 898.372 277.521 Z" fill="#FAC959" transform="matrix(0.9999999999999999, 0, 0, 0.9999999999999999, -1.1368683772161603e-13, 0)"></path>
  <path d="M 924.782 278.843 C 927.257 279.338 927.257 279.338 929.782 279.843 C 930.112 281.493 930.442 283.143 930.782 284.843 C 928.802 284.843 926.822 284.843 924.782 284.843 C 924.782 282.863 924.782 280.883 924.782 278.843 Z" fill="#FAC85D" transform="matrix(0.9999999999999999, 0, 0, 0.9999999999999999, -1.1368683772161603e-13, 0)"></path>
  <path d="M 937.782 270.843 C 937.782 272.493 937.782 274.143 937.782 275.843 C 936.132 275.843 934.482 275.843 932.782 275.843 C 932.452 274.523 932.122 273.203 931.782 271.843 C 933.782 270.843 933.782 270.843 937.782 270.843 Z" fill="#FDCB58" transform="matrix(0.9999999999999999, 0, 0, 0.9999999999999999, -1.1368683772161603e-13, 0)"></path>
  <path d="M 916.782 282.843 C 918.102 283.173 919.422 283.503 920.782 283.843 C 920.782 284.503 920.782 285.163 920.782 285.843 C 919.792 286.503 918.802 287.163 917.782 287.843 C 916.792 287.513 915.802 287.183 914.782 286.843 C 915.151 285.465 914.787 283.94 916.782 282.843 Z" fill="#FBC855" transform="matrix(0.9999999999999999, 0, 0, 0.9999999999999999, -1.1368683772161603e-13, 0)"></path>
  <path d="M 895.856 265.114 C 893.068 259.895 898.006 257.835 900.782 259.843 C 903.473 263.939 900.673 267.691 895.856 265.114 Z" fill="#FCC861" transform="matrix(0.9999999999999999, 0, 0, 0.9999999999999999, -1.1368683772161603e-13, 0)"></path>
  <path d="M 904.398 284.827 C 901.599 280.768 905.594 280.142 908.336 280.734 C 909.819 283.692 907.646 285.853 904.398 284.827 Z" fill="#FAC959" transform="matrix(0.9999999999999999, 0, 0, 0.9999999999999999, -1.1368683772161603e-13, 0)"></path>
</svg>