<svg viewBox="-203.294 223.144 209.349 211.184" xmlns="http://www.w3.org/2000/svg">
  <defs>
    <radialGradient gradientUnits="userSpaceOnUse" cx="-99.661" cy="401.046" r="57.32" id="gradient-0" spreadMethod="repeat" gradientTransform="matrix(1, 0, 0, 0.866998, 0, 50.081697)">
      <stop offset="0" style="stop-color: #bada55"></stop>
      <stop offset="1" style="stop-color: #758d29"></stop>
    </radialGradient>
  </defs>
  <ellipse style="stroke-width: 10px; stroke-dashoffset: -10px; stroke-miterlimit: 9.29; paint-order: fill; stroke: rgb(155, 175, 248); fill: rgb(255, 255, 255);" cx="-98.967" cy="328.933" rx="93.708" ry="97.119" transform="matrix(0.9999999999999999, 0, 0, 0.9999999999999999, 0, 1.4210854715202004e-14)"></ellipse>
  <path d="M -86.898 259.166 C -86.138 259.582 -85.379 259.998 -84.597 260.427 C -83.745 260.875 -82.893 261.322 -82.015 261.783 C -72.978 266.837 -66.034 273.078 -63.062 283.26 C -60.77 293.94 -62.285 306.626 -63.347 317.427 C -63.409 318.149 -63.47 318.872 -63.534 319.615 C -64.089 324.484 -65.471 327.664 -68.597 331.427 C -70.527 332.502 -70.527 332.502 -72.472 333.115 C -77.495 335.295 -79.033 339.179 -81.273 343.967 C -82.597 346.427 -82.597 346.427 -85.597 348.427 C -86.818 354.901 -85.167 361.965 -84.034 368.349 C -83.598 371.42 -83.523 374.33 -83.597 377.427 C -84.587 377.427 -87.009 378.541 -87.222 379.115 C -89.174 382.398 -91.539 384.134 -94.597 386.427 C -95.257 386.427 -95.917 386.427 -96.597 386.427 C -96.597 387.087 -96.597 387.747 -96.597 388.427 C -101.494 388.005 -103.487 385.939 -106.784 382.427 C -109.857 378.982 -110.76 381.238 -114.5 378.683 C -114.415 377.45 -113.512 375.194 -113.426 373.936 C -113.185 370.205 -112.984 366.473 -112.784 362.74 C -112.695 361.446 -112.605 360.153 -112.513 358.82 C -112.452 357.573 -112.391 356.326 -112.327 355.041 C -112.259 353.894 -112.191 352.747 -112.121 351.565 C -112.749 347.422 -114.488 346.127 -117.597 343.427 C -121.597 338.022 -121.597 338.022 -121.597 334.427 C -122.463 334.201 -123.329 333.974 -124.222 333.74 C -128.033 332.258 -131.023 330.615 -133.597 327.427 C -134.621 324.479 -134.804 321.594 -134.972 318.49 C -135.037 317.623 -135.101 316.755 -135.168 315.862 C -135.356 313.051 -135.487 310.243 -135.597 307.427 C -135.655 305.98 -135.655 305.98 -135.714 304.504 C -135.811 301.603 -134.48 278.915 -130.909 272.302 C -127.452 269.499 -124.961 270.064 -120.597 270.427 C -120.7 269.561 -120.803 268.695 -120.909 267.802 C -120.489 263.264 -118.815 261.574 -115.597 258.427 C -107.404 254.141 -95.046 255.263 -86.898 259.166 Z" fill="#BFD4F3" transform="matrix(0.9999999999999999, 0, 0, 0.9999999999999999, 0, 1.4210854715202004e-14)"></path>
  <path d="M -156.743 398.795 C -153.162 388.868 -125.943 374.386 -111.901 378.925 C -108.678 379.967 -102.651 384.657 -97.125 386.499 C -97.125 385.872 -92.876 384.198 -92.876 383.551 C -90.942 381.975 -86.841 379.197 -84.406 377.369 C -77.196 371.956 -42.596 392.459 -41.866 399.566 C -64.559 423.227 -121.073 434.053 -156.743 398.795 Z" fill="#FDCB5F" style="stroke-dashoffset: 50px; stroke-linecap: round; stroke: url('#gradient-0'); stroke-opacity: 0.28; stroke-miterlimit: 14.42; stroke-width: 0px;" transform="matrix(0.9999999999999999, 0, 0, 0.9999999999999999, 0, 1.4210854715202004e-14)"></path>
  <path d="M -86.898 259.166 C -86.138 259.582 -85.379 259.998 -84.597 260.427 C -83.745 260.875 -82.893 261.322 -82.015 261.783 C -72.974 266.839 -66.06 273.07 -63.062 283.243 C -62.166 287.452 -61.761 292.937 -61.758 297.223 C -61.746 298.171 -62.29 304.325 -62.372 305.299 C -63.01 312.867 -63.098 311.209 -64.597 317.427 C -67.597 317.427 -67.597 317.427 -71.597 315.427 C -71.927 307.837 -72.257 300.247 -72.597 292.427 C -74.577 292.366 -76.557 292.304 -78.597 292.24 C -85.895 291.742 -92.301 289.936 -99.199 287.584 C -101.669 286.743 -104.056 285.995 -106.597 285.427 C -97.205 291.848 -87.827 294.348 -76.597 295.427 C -76.927 296.747 -77.257 298.067 -77.597 299.427 C -89.622 300.28 -100.267 297.212 -109.597 289.427 C -111.804 287.239 -113.887 285.03 -115.597 282.427 C -115.597 281.767 -115.597 281.107 -115.597 280.427 C -123.069 286.654 -124.627 294.264 -125.583 303.631 C -125.968 307.893 -126.307 312.157 -126.597 316.427 C -130.062 316.922 -130.811 314.924 -134.346 315.429 C -136.019 308.366 -135.935 303.677 -135.909 296.427 C -135.926 295.507 -135.942 294.587 -135.958 293.638 C -135.964 285.937 -134.587 279.112 -130.909 272.302 C -127.452 269.499 -124.961 270.064 -120.597 270.427 C -120.7 269.561 -120.803 268.695 -120.909 267.802 C -120.489 263.264 -118.815 261.574 -115.597 258.427 C -107.404 254.141 -95.046 255.263 -86.898 259.166 Z" fill="#146BCF" transform="matrix(0.9999999999999999, 0, 0, 0.9999999999999999, 0, 1.4210854715202004e-14)"></path>
  <path d="M -104.597 261.428 C -100.804 262.43 -97.881 263.238 -94.597 265.428 C -94.597 266.088 -94.597 266.748 -94.597 267.428 C -93.813 267.552 -93.029 267.675 -92.222 267.803 C -86.309 268.822 -80.408 269.928 -74.597 271.428 C -74.927 272.748 -75.257 274.068 -75.597 275.428 C -85.647 275.145 -93.87 274.511 -101.597 267.428 C -101.597 266.768 -101.597 266.108 -101.597 265.428 C -102.917 265.428 -104.237 265.428 -105.597 265.428 C -105.267 264.108 -104.937 262.788 -104.597 261.428 Z" fill="#1258CC" transform="matrix(0.9999999999999999, 0, 0, 0.9999999999999999, 0, 1.4210854715202004e-14)"></path>
  <path d="M -109.196 346.261 C -108.474 346.756 -107.752 347.251 -107.008 347.761 C -101.906 350.342 -95.744 349.813 -90.196 349.261 C -87.88 348.346 -87.88 348.346 -86.196 347.261 C -88.74 352.208 -92.172 355.749 -97.196 358.261 C -102.611 358.616 -105.706 358.628 -110.196 355.261 C -109.866 352.291 -109.536 349.321 -109.196 346.261 Z" fill="#2E60C5" transform="matrix(0.9999999999999999, 0, 0, 0.9999999999999999, 0, 1.4210854715202004e-14)"></path>
  <path d="M -88.196 347.261 C -87.536 347.591 -86.876 347.921 -86.196 348.261 C -87.317 349.577 -88.443 350.888 -89.571 352.198 C -90.197 352.929 -90.824 353.66 -91.469 354.413 C -93.379 356.457 -94.341 357.218 -97.141 357.358 C -99.159 357.326 -101.177 357.293 -103.196 357.261 C -103.196 356.601 -103.196 355.941 -103.196 355.261 C -101.876 355.261 -100.556 355.261 -99.196 355.261 C -99.526 354.271 -99.856 353.281 -100.196 352.261 C -99.497 352.067 -98.798 351.874 -98.078 351.675 C -97.168 351.414 -96.258 351.154 -95.321 350.886 C -94.416 350.631 -93.511 350.375 -92.578 350.112 C -90.05 349.4 -90.05 349.4 -88.196 347.261 Z" fill="#1C54C8" transform="matrix(0.9999999999999999, 0, 0, 0.9999999999999999, 0, 1.4210854715202004e-14)"></path>
  <path d="M -110.239 269.269 C -108.919 269.269 -107.599 269.269 -106.239 269.269 C -105.089 270.419 -103.946 271.575 -102.844 272.769 C -94.956 280.139 -84.737 283.465 -74.239 284.457 C -73.464 284.539 -72.689 284.621 -71.891 284.705 C -70.008 284.903 -68.123 285.087 -66.239 285.269 C -65.744 287.249 -65.744 287.249 -65.239 289.269 C -77.951 289.777 -87.96 288.247 -99.239 282.394 C -99.874 282.067 -100.509 281.74 -101.164 281.402 C -105.102 279.244 -107.845 277.087 -110.239 273.269 C -110.239 271.949 -110.239 270.629 -110.239 269.269 Z" fill="#1156CC" transform="matrix(0.9999999999999999, 0, 0, 0.9999999999999999, 0, 1.4210854715202004e-14)"></path>
  <path d="M -119.402 385.302 C -117.652 385.365 -118.708 385.576 -116.458 386.513 C -115.271 387.964 -105.207 397.558 -102.863 399.813 C -100.165 402.79 -101.114 401.944 -97.253 404.724 C -93.068 401.423 -89.055 397.832 -88.665 396.942 C -86.416 392.839 -80.439 389.537 -79.703 388.82 C -79.015 388.175 -77.458 385.513 -75.224 385.829 C -74.35 386.168 -74.35 386.168 -73.458 386.513 C -73.769 389.579 -74.44 390.496 -76.751 392.626 C -77.706 393.352 -78.661 394.078 -79.645 394.826 C -83.67 397.99 -85.034 399.103 -88.256 403.061 C -89.834 404.969 -93.248 408.372 -95.458 409.513 C -100.939 409.424 -99.586 409.699 -103.253 406.09 C -104.483 404.902 -119.438 388.779 -120.458 388.779 C -120.84 387.123 -120.538 388.188 -120.824 386.513 C -120.494 386.183 -119.742 385.642 -119.402 385.302 Z" fill="#F8AD13" transform="matrix(0.9999999999999999, 0, 0, 0.9999999999999999, 0, 1.4210854715202004e-14)"></path>
  <path d="M -133.094 404.829 C -131.774 404.829 -130.454 404.829 -129.094 404.829 C -129.094 408.789 -129.094 412.749 -129.094 416.829 C -131.569 415.839 -131.569 415.839 -134.094 414.829 C -134.121 413.35 -134.14 411.871 -134.157 410.391 C -134.168 409.568 -134.18 408.744 -134.192 407.895 C -134.094 405.829 -134.094 405.829 -133.094 404.829 Z" fill="#F7B01D" transform="matrix(0.9999999999999999, 0, 0, 0.9999999999999999, 0, 1.4210854715202004e-14)"></path>
  <path d="M -67.597 401.68 C -65.947 401.68 -64.297 401.68 -62.597 401.68 C -62.597 405.64 -62.164 409.167 -62.164 413.247 C -63.814 413.577 -66.07 414.946 -67.77 415.286 C -67.77 410.996 -67.597 406.1 -67.597 401.68 Z" fill="#F9B326" transform="matrix(0.9999999999999999, 0, 0, 0.9999999999999999, 0, 1.4210854715202004e-14)"></path>
</svg>