<svg viewBox="-200.243 -7.569 207.519 211.183" xmlns="http://www.w3.org/2000/svg">
  <defs>
    <radialGradient gradientUnits="userSpaceOnUse" cx="-99.661" cy="401.046" r="57.32" id="gradient-1" spreadMethod="repeat" gradientTransform="matrix(1, 0, 0, 0.866998, 2.764696, -180.241791)">
      <stop offset="0" style="stop-color: #bada55"></stop>
      <stop offset="1" style="stop-color: #758d29"></stop>
    </radialGradient>
  </defs>
  <ellipse style="stroke-width: 10px; stroke-dashoffset: -10px; stroke-miterlimit: 9.29; paint-order: fill; stroke: rgb(155, 175, 248); fill: rgb(255, 255, 255);" cx="-97.079" cy="98.062" rx="93.708" ry="97.119" transform="matrix(0.9999999999999999, 0, 0, 0.9999999999999999, 0, -5.551115123125783e-17)"></ellipse>
  <path d="M -90.155 15.023 C -88.85 15.642 -87.559 16.291 -86.28 16.96 C -81.081 19.528 -75.966 19.551 -70.27 19.606 C -65.522 19.707 -62.252 20.366 -58.155 23.023 C -56.248 25.144 -56.248 25.144 -54.655 27.46 C -50.932 32.497 -47.345 35.116 -41.53 37.523 C -38.056 39.066 -36.453 40.04 -34.155 43.023 C -33.791 46.308 -33.791 46.308 -33.842 50.085 C -33.736 57.049 -31.645 61.011 -27.635 66.601 C -25.716 69.74 -25.474 71.615 -26.291 75.155 C -27.294 77.325 -28.576 78.795 -30.155 80.585 C -34.186 85.393 -33.836 90.56 -33.854 96.534 C -34.182 100.341 -34.755 102.079 -37.155 105.023 C -39.608 106.542 -39.608 106.542 -42.405 107.835 C -48.025 110.708 -51.318 114.107 -55.155 119.023 C -59.864 123.986 -59.864 123.986 -64.631 124.12 C -66.014 124.114 -67.397 124.102 -68.78 124.085 C -69.486 124.081 -70.192 124.076 -70.92 124.072 C -72.665 124.06 -74.41 124.042 -76.155 124.023 C -72.169 114.623 -72.169 114.623 -68.092 112.21 C -66.638 111.622 -66.638 111.622 -65.155 111.023 C -62.31 108.253 -61.24 106.874 -60.842 102.898 C -61.059 99.956 -60.42 100.103 -62.401 97.613 C -64.248 97.121 -65.455 97.023 -67.155 97.023 C -67.18 96.091 -67.206 95.159 -67.233 94.198 C -67.693 83.863 -68.607 73.46 -75.155 65.023 C -75.155 64.363 -81.931 60.765 -86.186 60.757 C -86.859 60.755 -87.532 60.753 -88.225 60.751 C -89.644 60.75 -91.063 60.754 -92.481 60.762 C -94.647 60.773 -96.813 60.762 -98.979 60.749 C -100.36 60.751 -101.742 60.753 -103.123 60.757 C -105.002 60.76 -105.002 60.76 -106.918 60.764 C -109.969 61.008 -111.639 61.346 -114.155 63.023 C -119.124 69.516 -121.015 76.778 -121.28 84.82 C -121.302 85.491 -121.325 86.162 -121.349 86.854 C -121.403 88.824 -121.412 90.795 -121.42 92.765 C -122.155 96.023 -122.155 96.023 -125.201 97.968 C -126.176 98.316 -127.151 98.664 -128.155 99.023 C -128.595 104.686 -128.595 104.686 -126.592 109.835 C -124.196 112.242 -124.196 112.242 -120.655 113.398 C -116.011 115.554 -115.239 117.438 -113.155 122.023 C -113.155 122.683 -112.648 125.119 -112.648 125.799 C -126.61 126.659 -127.117 124.883 -130.78 121.898 C -133.155 119.023 -133.155 119.023 -134.862 116.097 C -137.507 112.55 -140.346 110.886 -144.217 108.96 C -148.751 106.691 -152.149 104.911 -154.155 100.023 C -154.42 97.077 -154.42 97.077 -154.405 93.898 C -154.725 87.314 -156.898 83.748 -160.608 78.445 C -162.155 76.023 -162.155 76.023 -162.967 72.398 C -161.966 68.238 -160.091 65.454 -157.565 62.038 C -154.968 58.327 -155.045 55.045 -154.905 50.648 C -154.43 44.441 -154.43 44.441 -152.217 41.085 C -149.155 39.023 -149.155 39.023 -146.916 37.792 C -140.48 34.219 -136.554 30.345 -132.162 24.413 C -129.726 21.512 -127.797 20.218 -124.007 19.767 C -123.248 19.761 -122.488 19.755 -121.705 19.749 C -120.432 19.718 -120.432 19.718 -119.133 19.687 C -117.375 19.661 -115.618 19.643 -113.86 19.632 C -108.243 19.48 -104.115 18.495 -99.103 15.925 C -95.93 14.456 -93.584 14.533 -90.155 15.023 Z" fill="#222273" transform="matrix(0.9999999999999999, 0, 0, 0.9999999999999999, 0, -5.551115123125783e-17)"></path>
  <path d="M -96.883 59.597 C -94.727 59.585 -92.573 59.536 -90.418 59.485 C -89.04 59.476 -87.661 59.468 -86.283 59.464 C -85.036 59.45 -83.789 59.437 -82.504 59.423 C -77.264 60.361 -75.244 63.676 -72.029 67.647 C -66.778 77.099 -66.771 86.504 -67.154 97.022 C -66.371 96.96 -65.587 96.898 -64.779 96.835 C -63.48 96.928 -63.283 97.125 -61.908 97.76 C -59.377 100.154 -59.26 102.054 -60.302 106.12 C -62.155 109.776 -64.728 112.513 -68.779 113.96 C -72.703 115.715 -72.975 117.405 -74.647 121.246 C -76.523 125.382 -80.134 129.342 -81.154 130.022 C -81.555 135.049 -80.86 139.926 -80.154 144.897 C -78.187 160.051 -78.187 160.051 -80.842 165.46 C -83.914 168.864 -86.492 169.827 -91.022 170.358 C -97.638 170.444 -101.871 170.157 -107.154 166.022 C -111.273 159.727 -109.306 150.508 -108.377 143.401 C -107.93 138.623 -108.081 133.816 -108.154 129.022 C -108.814 128.692 -110.154 126.702 -110.154 126.022 C -115.104 125.692 -117.917 114.654 -125.154 112.022 C -128.317 109.184 -129.417 107.061 -129.654 102.897 C -129.154 99.022 -129.154 99.022 -127.342 97.022 C -125.154 96.022 -125.154 96.022 -122.154 96.022 C -122.189 95.079 -122.224 94.135 -122.26 93.163 C -122.5 81.766 -122.102 70.939 -114.154 62.022 C -109.15 58.663 -102.683 59.612 -96.883 59.597 Z" fill="#BED0F1" transform="matrix(0.9999999999999999, 0, 0, 0.9999999999999999, 0, -5.551115123125783e-17)"></path>
  <path d="M -116.206 84.909 C -115.373 84.914 -114.54 84.919 -113.682 84.925 C -112.783 84.928 -111.884 84.931 -110.958 84.934 C -109.54 84.947 -109.54 84.947 -108.093 84.96 C -107.143 84.964 -106.194 84.969 -105.216 84.973 C -102.862 84.985 -100.509 85.002 -98.155 85.022 C -97.825 86.012 -97.495 87.002 -97.155 88.022 C -94.92 88.034 -91.093 88.184 -91.038 87.893 C -90.439 84.727 -90.467 85.084 -90.467 85.084 C -87.329 84.835 -83.865 84.837 -80.718 84.835 C -79.833 84.822 -78.948 84.81 -78.036 84.798 C -77.19 84.796 -76.343 84.794 -75.471 84.792 C -74.692 84.788 -73.913 84.784 -73.11 84.779 C -71.155 85.022 -71.155 85.022 -69.155 87.022 C -68.421 92.181 -67.965 98.204 -70.843 102.772 C -73.691 105.539 -76.813 105.531 -80.655 105.71 C -84.814 105.493 -86.833 105.211 -90.468 103.085 C -92.739 98.963 -92.606 95.625 -92.155 91.022 C -93.475 91.022 -94.795 91.022 -96.155 91.022 C -96.052 92.218 -95.949 93.415 -95.843 94.647 C -95.896 98.374 -96.521 101.132 -99.198 103.948 C -103.792 106.47 -109.146 105.824 -114.155 105.022 C -117.468 103.397 -117.468 103.397 -119.155 100.022 C -119.591 95.319 -119.586 90.726 -119.155 86.022 C -118.155 85.022 -118.155 85.022 -116.206 84.909 Z" fill="#2E3979" transform="matrix(0.9999999999999999, 0, 0, 0.9999999999999999, 0, -5.551115123125783e-17)"></path>
  <path d="M -84.155 134.023 C -83.495 134.023 -82.835 134.023 -82.155 134.023 C -80.362 140.355 -79.557 146.459 -79.155 153.023 C -79.056 154.256 -79.056 154.256 -78.955 155.515 C -78.695 160.842 -79.438 163.904 -83.155 168.023 C -88.639 170.76 -109.314 148.095 -108.155 141.023 C -107.495 140.693 -106.835 140.363 -106.155 140.023 C -105.072 140.487 -105.072 140.487 -103.967 140.96 C -100.418 142.301 -97.929 142.42 -94.155 142.023 C -90.914 140.244 -88.513 138.381 -85.905 135.773 C -85.327 135.195 -84.75 134.618 -84.155 134.023 Z" fill="#C0D3F2" transform="matrix(0.9999999999999999, 0, 0, 0.9999999999999999, 0, -5.551115123125783e-17)"></path>
  <path d="M -106.155 131.023 C -105.412 131.518 -104.67 132.013 -103.905 132.523 C -98.149 135.442 -90.211 134.819 -84.155 133.023 C -85.889 137.706 -89.747 140.819 -94.155 143.023 C -99.414 143.427 -102.608 142.684 -107.155 140.023 C -106.825 137.053 -106.495 134.083 -106.155 131.023 Z" fill="#1B2172" transform="matrix(0.9999999999999999, 0, 0, 0.9999999999999999, 0, -5.551115123125783e-17)"></path>
  <path d="M -129.155 46.023 C -129.155 47.673 -129.155 49.323 -129.155 51.023 C -131.465 51.023 -133.775 51.023 -136.155 51.023 C -136.155 51.683 -136.155 52.343 -136.155 53.023 C -137.145 53.518 -137.145 53.518 -138.155 54.023 C -138.621 56.148 -138.621 56.148 -138.78 58.585 C -138.854 59.411 -138.929 60.238 -139.006 61.089 C -139.055 61.727 -139.104 62.365 -139.155 63.023 C -139.815 63.023 -140.475 63.023 -141.155 63.023 C -141.155 64.013 -141.155 65.003 -141.155 66.023 C -141.815 66.023 -142.475 66.023 -143.155 66.023 C -144.455 62.121 -144.716 58.08 -144.155 54.023 C -142.416 50.545 -141.152 48.6 -137.78 46.648 C -134.823 45.944 -132.183 45.882 -129.155 46.023 Z" fill="#09095F" transform="matrix(0.9999999999999999, 0, 0, 0.9999999999999999, 0, -5.551115123125783e-17)"></path>
  <path d="M -43.155 82.023 C -42.495 82.023 -41.835 82.023 -41.155 82.023 C -38.657 85.769 -38.628 89.682 -39.155 94.023 C -40.514 98.026 -41.514 99.591 -45.03 101.96 C -48.337 103.085 -49.878 103.083 -53.155 102.023 C -53.155 101.033 -53.155 100.043 -53.155 99.023 C -52.412 98.734 -51.67 98.445 -50.905 98.148 C -48.586 97.199 -46.385 96.157 -44.155 95.023 C -44.166 94.168 -44.178 93.313 -44.19 92.433 C -44.199 91.328 -44.208 90.223 -44.217 89.085 C -44.229 87.983 -44.24 86.881 -44.252 85.745 C -44.155 83.023 -44.155 83.023 -43.155 82.023 Z" fill="#0B0B63" transform="matrix(0.9999999999999999, 0, 0, 0.9999999999999999, 0, -5.551115123125783e-17)"></path>
  <path d="M -119.155 87.023 C -118.165 87.518 -118.165 87.518 -117.155 88.023 C -116.811 90.202 -116.811 90.202 -116.655 92.898 C -116.439 96.603 -116.282 97.832 -114.155 101.023 C -111.064 101.426 -111.064 101.426 -107.592 101.273 C -106.415 101.257 -105.238 101.242 -104.026 101.226 C -101.259 101.345 -101.259 101.345 -100.155 100.023 C -99.92 98.007 -99.741 95.984 -99.592 93.96 C -99.508 92.855 -99.425 91.751 -99.338 90.613 C -99.247 89.331 -99.247 89.331 -99.155 88.023 C -97.031 91.208 -96.835 92.267 -96.78 95.96 C -96.751 96.815 -96.723 97.669 -96.694 98.55 C -97.322 101.919 -98.391 103.026 -101.155 105.023 C -106.835 106.075 -112.294 105.971 -117.467 103.335 C -120.142 98.201 -119.535 92.8 -119.155 87.023 Z" fill="#1C2666" transform="matrix(0.9999999999999999, 0, 0, 0.9999999999999999, 0, -5.551115123125783e-17)"></path>
  <path d="M -63.155 59.023 C -58.317 59.437 -56.298 61.443 -53.155 65.023 C -51.832 67.667 -52.058 69.7 -52.092 72.648 C -52.101 73.651 -52.11 74.653 -52.119 75.687 C -52.131 76.458 -52.143 77.228 -52.155 78.023 C -52.815 78.023 -53.475 78.023 -54.155 78.023 C -54.155 79.013 -54.155 80.003 -54.155 81.023 C -55.475 80.693 -56.795 80.363 -58.155 80.023 C -57.99 79.507 -57.825 78.991 -57.655 78.46 C -56.972 75.131 -56.797 72.418 -57.155 69.023 C -59.55 66.377 -59.55 66.377 -62.155 64.023 C -62.967 61.21 -62.967 61.21 -63.155 59.023 Z" fill="#08075F" transform="matrix(0.9999999999999999, 0, 0, 0.9999999999999999, 0, -5.551115123125783e-17)"></path>
  <path d="M -135.155 75.023 C -134.165 75.353 -133.175 75.683 -132.155 76.023 C -132.155 77.013 -132.155 78.003 -132.155 79.023 C -132.959 79.58 -133.763 80.136 -134.592 80.71 C -137.387 83.232 -137.556 83.739 -137.967 87.273 C -138.029 88.51 -138.091 89.748 -138.155 91.023 C -137.495 91.023 -136.835 91.023 -136.155 91.023 C -136.485 93.333 -136.815 95.643 -137.155 98.023 C -137.815 98.023 -138.475 98.023 -139.155 98.023 C -139.485 97.033 -139.815 96.043 -140.155 95.023 C -140.815 94.693 -141.475 94.363 -142.155 94.023 C -143.016 82.198 -143.016 82.198 -139.78 78.335 C -137.155 76.023 -137.155 76.023 -135.155 75.023 Z" fill="#0A075F" transform="matrix(0.9999999999999999, 0, 0, 0.9999999999999999, 0, -5.551115123125783e-17)"></path>
  <path d="M -82.155 41.023 C -81.495 42.013 -80.835 43.003 -80.155 44.023 C -79.165 44.353 -78.175 44.683 -77.155 45.023 C -76.467 47.085 -76.467 47.085 -76.155 49.023 C -77.475 49.353 -78.795 49.683 -80.155 50.023 C -80.155 49.363 -80.155 48.703 -80.155 48.023 C -83.945 46.612 -87.096 45.584 -91.155 46.023 C -92.145 46.683 -93.135 47.343 -94.155 48.023 C -96.842 48.148 -96.842 48.148 -99.155 48.023 C -99.03 46.21 -99.03 46.21 -98.155 44.023 C -93.402 40.611 -87.848 39.978 -82.155 41.023 Z" fill="#08085F" transform="matrix(0.9999999999999999, 0, 0, 0.9999999999999999, 0, -5.551115123125783e-17)"></path>
  <path d="M -107.217 28.336 C -106.341 28.414 -105.466 28.493 -104.564 28.574 C -102.154 29.023 -102.154 29.023 -99.154 31.023 C -99.154 32.013 -99.154 33.003 -99.154 34.023 C -100.046 33.977 -100.938 33.93 -101.857 33.883 C -103.028 33.846 -104.198 33.81 -105.404 33.773 C -106.564 33.727 -107.724 33.68 -108.92 33.633 C -112.809 34.102 -113.578 35.227 -116.154 38.023 C -117.474 38.023 -118.794 38.023 -120.154 38.023 C -119.681 33.768 -117.229 31.798 -114.154 29.023 C -111.587 27.74 -110.058 28.056 -107.217 28.336 Z" fill="#070760" transform="matrix(0.9999999999999999, 0, 0, 0.9999999999999999, 0, -5.551115123125783e-17)"></path>
  <path d="M -70.155 87.023 C -69.825 87.023 -69.495 87.023 -69.155 87.023 C -68.298 98.783 -68.298 98.783 -70.842 102.773 C -73.709 105.582 -76.843 105.468 -80.717 105.585 C -84.128 105.526 -86.479 105.356 -89.541 103.843 C -91.789 101.307 -91.562 99.669 -91.405 96.335 C -91.369 95.341 -91.332 94.347 -91.295 93.323 C -91.249 92.564 -91.202 91.805 -91.155 91.023 C -90.825 91.023 -90.495 91.023 -90.155 91.023 C -90.022 91.661 -89.889 92.299 -89.752 92.956 C -89.576 93.783 -89.399 94.609 -89.217 95.46 C -88.956 96.696 -88.956 96.696 -88.69 97.956 C -88.347 99.999 -88.347 99.999 -87.155 101.023 C -84.801 101.095 -82.446 101.106 -80.092 101.085 C -78.802 101.076 -77.511 101.067 -76.182 101.058 C -75.183 101.046 -74.184 101.035 -73.155 101.023 C -73.022 100.096 -72.889 99.169 -72.752 98.214 C -72.576 97.017 -72.399 95.819 -72.217 94.585 C -71.956 92.793 -71.956 92.793 -71.69 90.964 C -71.155 88.023 -71.155 88.023 -70.155 87.023 Z" fill="#222D71" transform="matrix(0.9999999999999999, 0, 0, 0.9999999999999999, 0, -5.551115123125783e-17)"></path>
  <path d="M -71.155 36.023 C -59.806 35.125 -59.806 35.125 -56.213 37.077 C -52.74 40.914 -52.409 45.101 -52.155 50.023 C -53.475 50.023 -54.795 50.023 -56.155 50.023 C -56.815 47.383 -57.475 44.743 -58.155 42.023 C -61.785 41.363 -65.415 40.703 -69.155 40.023 C -69.155 39.363 -69.155 38.703 -69.155 38.023 C -69.815 38.023 -70.475 38.023 -71.155 38.023 C -71.155 37.363 -71.155 36.703 -71.155 36.023 Z" fill="#090560" transform="matrix(0.9999999999999999, 0, 0, 0.9999999999999999, 0, -5.551115123125783e-17)"></path>
  <path d="M -84.155 133.023 C -85.889 137.706 -89.747 140.819 -94.155 143.023 C -97.655 143.21 -97.655 142.839 -101.155 142.652 C -101.815 141.992 -102.475 141.703 -103.155 141.023 C -99.855 141.023 -96.555 141.023 -93.155 141.023 C -93.485 140.363 -93.815 139.703 -94.155 139.023 C -95.145 139.023 -96.135 139.023 -97.155 139.023 C -97.155 137.689 -97.155 136.356 -97.155 135.023 C -96.215 134.932 -96.215 134.932 -95.256 134.839 C -94.439 134.755 -93.622 134.672 -92.78 134.585 C -91.967 134.504 -91.155 134.423 -90.319 134.339 C -88.008 134.001 -86.489 133.023 -84.155 133.023 Z" fill="#222C73" transform="matrix(0.9999999999999999, 0, 0, 0.9999999999999999, 0, -5.551115123125783e-17)"></path>
  <path d="M -42.155 83.023 C -40.655 84.023 -40.655 84.023 -39.155 86.023 C -38.881 88.741 -39.02 91.279 -39.155 94.023 C -40.145 94.023 -41.135 94.023 -42.155 94.023 C -43.155 93.023 -43.155 93.023 -43.28 89.648 C -43.155 86.023 -43.155 86.023 -42.155 83.023 Z" fill="#05065B" transform="matrix(0.9999999999999999, 0, 0, 0.9999999999999999, 0, -5.551115123125783e-17)"></path>
  <path d="M -151.55 170.511 C -142.206 165.291 -141.449 162.217 -130.47 156.705 C -123.225 153.068 -114.784 151.936 -110.458 150.584 C -107.225 149.574 -99.886 154.333 -94.36 156.175 C -94.36 155.548 -82.021 149.941 -78.999 150.316 C -61.747 152.454 -45.156 160.952 -39.101 169.242 C -61.794 192.903 -115.88 205.769 -151.55 170.511 Z" style="stroke-dashoffset: 50px; stroke-linecap: round; stroke-opacity: 0.28; stroke-miterlimit: 14.42; stroke-width: 0px; stroke: url('#gradient-1'); fill: rgb(236, 234, 229);" transform="matrix(0.9999999999999999, 0, 0, 0.9999999999999999, 0, -5.551115123125783e-17)"></path>
  <path d="M -119.063 159.74 C -115.76 159.99 -114.958 160.857 -112.703 163.392 C -111.896 164.479 -111.099 165.575 -110.313 166.677 C -109.696 167.504 -109.696 167.504 -109.067 168.347 C -106.063 172.454 -106.063 172.454 -106.063 174.74 C -101.082 173.231 -97.82 170.183 -94.063 166.74 C -90.14 168.565 -87.325 170.922 -84.063 173.74 C -79.271 172.019 -77.122 167.94 -74.418 163.908 C -73.281 162.294 -73.281 162.294 -71.063 159.74 C -69.743 159.74 -68.423 159.74 -67.063 159.74 C -67.674 163.66 -69.6 166.155 -71.938 169.302 C -72.636 170.252 -73.335 171.202 -74.055 172.181 C -78.188 177.448 -78.188 177.448 -81.875 178.677 C -86.078 178.76 -87.853 177.352 -91.063 174.74 C -91.393 174.08 -91.723 173.42 -92.063 172.74 C -94.645 173.887 -96.332 174.988 -98.438 176.927 C -101.063 178.74 -101.063 178.74 -104 178.865 C -109.919 176.691 -113.042 172.094 -116.063 166.74 C -117.373 165.055 -118.701 163.383 -120.063 161.74 C -119.733 161.08 -119.403 160.42 -119.063 159.74 Z" fill="#C3D4ED" transform="matrix(0.9999999999999999, 0, 0, 0.9999999999999999, 0, -5.551115123125783e-17)"></path>
  <path d="M -94.587 181.45 C -93.267 181.45 -91.947 181.45 -90.587 181.45 C -90.587 183.1 -90.587 184.75 -90.587 186.45 C -91.907 186.12 -93.227 185.79 -94.587 185.45 C -94.587 184.13 -94.587 182.81 -94.587 181.45 Z" fill="#C9D3E5" transform="matrix(0.9999999999999999, 0, 0, 0.9999999999999999, 0, -5.551115123125783e-17)"></path>
  <path d="M -117.223 88.454 C -111.283 88.454 -105.343 88.454 -99.223 88.454 C -99.028 97.634 -99.028 97.634 -99.223 100.454 C -101.996 103.227 -103.796 102.786 -107.661 102.829 C -108.814 102.858 -109.968 102.886 -111.157 102.915 C -114.223 102.454 -114.223 102.454 -116.122 100.759 C -118.061 96.702 -117.398 92.892 -117.223 88.454 Z" fill="#BECDF1" transform="matrix(0.9999999999999999, 0, 0, 0.9999999999999999, 0, -5.551115123125783e-17)"></path>
  <path d="M -89.283 88.454 C -83.673 88.454 -78.063 88.454 -72.283 88.454 C -71.916 98.859 -71.916 98.859 -73.416 101.29 C -76.1 102.964 -78.209 102.817 -81.346 102.767 C -82.409 102.763 -83.473 102.759 -84.568 102.755 C -87.283 102.454 -87.283 102.454 -89.283 100.454 C -89.561 96.443 -89.369 92.48 -89.283 88.454 Z" fill="#BFD0F4" transform="matrix(0.9999999999999999, 0, 0, 0.9999999999999999, 0, -5.551115123125783e-17)"></path>
</svg>