<svg viewBox="755.339 470.574 202.278 209.372" xmlns="http://www.w3.org/2000/svg">
  <ellipse style="stroke-width: 10px; stroke-dashoffset: -10px; stroke-miterlimit: 9.29; paint-order: fill; stroke: rgb(155, 175, 248); fill: rgb(255, 255, 255);" cx="856.363" cy="576.373" rx="93.708" ry="97.119" transform="matrix(0.9999999999999999, 0, 0, 0.9999999999999999, 0, 0)"></ellipse>
  <path d="M 853.567 502.789 C 857.384 505.095 859.583 507.633 861.567 511.601 C 864.539 510.477 866.901 509.378 869.567 507.601 C 874.139 506.703 876.28 506.817 880.29 509.262 C 900.134 524.738 909.163 551.879 915.882 575.239 C 916.483 577.31 917.101 579.375 917.731 581.437 C 922.386 596.966 927.91 616.148 920.567 631.601 C 916.769 636.349 911.384 640.662 905.567 642.601 C 906.413 643.53 907.258 644.458 908.129 645.414 C 909.571 646.996 909.571 646.996 910.567 648.601 C 909.567 651.601 909.567 651.601 906.969 653.25 C 892.461 660.479 876.971 666.131 860.567 665.601 C 865.349 652.142 871.15 639.355 877.567 626.601 C 874.927 625.941 872.287 625.281 869.567 624.601 C 869.228 621.602 868.896 618.602 868.567 615.601 C 868.472 614.762 868.376 613.923 868.278 613.058 C 868.008 610.574 867.775 608.091 867.567 605.601 C 867.5 604.852 867.433 604.103 867.364 603.332 C 867.187 599.927 867.138 598.108 869.387 595.453 C 870.107 594.842 870.826 594.231 871.567 593.601 C 872.578 591.754 873.535 589.877 874.442 587.976 C 877.166 582.762 877.166 582.762 880.692 581.351 C 882.115 580.98 882.115 580.98 883.567 580.601 C 887.487 575.443 888.015 571.986 887.567 565.601 C 886.763 565.292 885.958 564.983 885.129 564.664 C 882.567 563.601 882.567 563.601 881.567 562.601 C 881.434 560.749 881.336 558.894 881.254 557.039 C 880.583 548.334 877.883 543.567 871.567 537.601 C 871.567 536.941 871.567 536.281 871.567 535.601 C 870.678 535.464 870.678 535.464 869.77 535.324 C 867.042 534.429 866.096 533.262 864.317 531.039 C 863.536 530.078 863.536 530.078 862.739 529.097 C 862.352 528.604 861.965 528.11 861.567 527.601 C 860.948 528.179 860.329 528.756 859.692 529.351 C 855.601 532.297 851.255 533.82 846.567 535.601 C 839.063 538.632 834.858 544.193 831.422 551.344 C 830.411 554.014 829.821 556.692 829.192 559.476 C 828.493 562.301 828.493 562.301 827.567 564.601 C 824.379 566.289 824.379 566.289 821.567 566.601 C 821.237 569.571 820.907 572.541 820.567 575.601 C 821.887 576.261 823.207 576.921 824.567 577.601 C 825.557 579.086 825.557 579.086 826.567 580.601 C 827.358 580.697 828.15 580.792 828.965 580.89 C 831.567 581.601 831.567 581.601 833.481 584.437 C 834.046 585.605 834.61 586.773 835.192 587.976 C 837.178 592.421 837.178 592.421 840.258 596.047 C 842.465 598.668 841.961 601.839 841.879 605.101 C 841.867 606.166 841.867 606.166 841.854 607.252 C 841.721 613.164 840.933 618.844 839.567 624.601 C 836.597 625.591 836.597 625.591 833.567 626.601 C 834.289 630.119 835.651 633.124 837.184 636.363 C 837.709 637.483 838.233 638.602 838.774 639.756 C 839.877 642.092 840.981 644.428 842.087 646.763 C 844.99 652.965 847.571 659.048 849.567 665.601 C 831.036 664.519 816.375 657.716 800.567 648.601 C 801.18 645.64 801.821 644.221 803.567 641.601 C 802.659 641.065 801.752 640.529 800.817 639.976 C 797.452 637.744 795.561 635.129 793.567 631.601 C 793.567 630.941 793.567 630.281 793.567 629.601 C 792.577 629.271 791.587 628.941 790.567 628.601 C 788.81 617.651 788.673 607.045 791.774 596.359 C 792.779 592.863 793.413 589.338 794.04 585.758 C 794.598 583.474 795.518 581.698 796.567 579.601 C 797.046 577.862 797.479 576.11 797.879 574.351 C 799.216 568.804 800.848 563.386 802.59 557.957 C 803.989 553.555 805.255 549.134 806.446 544.672 C 812.647 521.499 812.647 521.499 820.567 513.601 C 821.227 513.601 821.887 513.601 822.567 513.601 C 822.814 513.024 823.062 512.446 823.317 511.851 C 829.102 501.437 842.897 498.805 853.567 502.789 Z" fill="#FCAB08" transform="matrix(0.9999999999999999, 0, 0, 0.9999999999999999, 0, 0)"></path>
  <path d="M 860.567 526.601 C 866.317 531.226 866.317 531.226 868.567 534.601 C 869.557 534.931 870.547 535.261 871.567 535.601 C 873.54 537.71 873.54 537.71 875.63 540.351 C 876.322 541.212 877.014 542.073 877.727 542.96 C 881.62 548.547 881.822 553.197 881.93 559.859 C 882.297 562.823 882.297 562.823 885.047 564.343 C 885.879 564.758 886.71 565.173 887.567 565.601 C 889.034 568.534 888.931 570.321 888.567 573.601 C 887.287 576.618 885.795 579.188 883.567 581.601 C 880.255 582.601 880.255 582.601 877.567 582.601 C 877.361 583.405 877.155 584.21 876.942 585.039 C 875.16 589.656 872.705 593.763 869.567 597.601 C 868.907 597.601 869.085 598.799 868.405 598.799 C 868.549 599.826 867.856 599.656 868.005 600.714 C 869.091 608.722 869.876 616.499 869.567 624.601 C 870.557 625.096 870.557 625.096 871.567 625.601 C 870.907 628.241 870.247 630.881 869.567 633.601 C 869.237 633.601 868.907 633.601 868.567 633.601 C 868.506 632.348 868.446 631.095 868.383 629.804 C 868.299 628.153 868.214 626.502 868.13 624.851 C 868.09 624.026 868.051 623.201 868.01 622.351 C 867.968 621.552 867.927 620.753 867.883 619.929 C 867.828 618.829 867.828 618.829 867.772 617.707 C 867.561 615.534 867.331 613.651 866.567 611.601 C 865.577 611.271 864.587 610.941 863.567 610.601 C 864.062 609.116 864.062 609.116 864.567 607.601 C 865.227 607.601 865.887 607.601 866.567 607.601 C 866.567 605.951 866.567 604.301 866.567 602.601 C 865.645 603.342 865.645 603.342 864.704 604.097 C 863.895 604.738 863.087 605.378 862.255 606.039 C 861.454 606.677 860.653 607.315 859.829 607.972 C 856.694 610.23 854.269 610.727 850.505 610.664 C 848.525 610.632 846.546 610.601 844.567 610.601 C 845.062 611.591 845.062 611.591 845.567 612.601 C 844.907 612.601 844.247 612.601 843.567 612.601 C 843.237 617.221 842.907 621.841 842.567 626.601 C 844.052 627.096 844.052 627.096 845.567 627.601 C 844.082 628.096 844.082 628.096 842.567 628.601 C 841.358 630.601 841.358 630.601 840.567 632.601 C 839.446 629.239 839.434 626.638 839.442 623.101 C 839.439 621.956 839.437 620.812 839.434 619.632 C 839.567 616.601 839.567 616.601 840.567 613.601 C 841.754 602.7 841.754 602.7 837.755 592.976 C 836.697 591.846 835.635 590.721 834.567 589.601 C 831.567 584.201 831.567 584.201 831.567 581.601 C 830.453 581.756 830.453 581.756 829.317 581.914 C 826.567 581.601 827.019 580.472 824.832 578.035 C 821.32 577.177 818.038 576.09 820.307 568.92 C 823.713 562.716 824.567 564.601 827.567 564.601 C 827.65 563.652 827.732 562.704 827.817 561.726 C 829.075 553.195 832.975 546.058 838.567 539.601 C 839.019 539.074 839.472 538.547 839.938 538.003 C 842.005 536.224 844.001 535.508 846.567 534.601 C 854.422 531.947 854.422 531.947 860.567 526.601 Z" fill="#C0D4F3" transform="matrix(0.9999999999999999, 0, 0, 0.9999999999999999, 0, 0)"></path>
  <path d="M 853.63 502.914 C 858.188 505.532 858.188 505.532 859.567 507.601 C 860.255 510.789 860.255 510.789 860.567 513.601 C 861.557 513.931 862.547 514.261 863.567 514.601 C 864.692 521.351 864.692 521.351 863.567 523.601 C 861.917 523.271 860.267 522.941 858.567 522.601 C 858.567 523.261 858.567 523.921 858.567 524.601 C 857.907 524.601 857.247 524.601 856.567 524.601 C 856.671 525.365 856.774 526.128 856.88 526.914 C 856.567 529.601 856.567 529.601 854.442 531.289 C 851.567 532.601 851.567 532.601 848.817 533.289 C 839.662 536.986 834.387 544.817 830.567 553.601 C 830.195 554.924 829.844 556.255 829.567 557.601 C 828.577 557.601 827.587 557.601 826.567 557.601 C 826.567 559.251 826.567 560.901 826.567 562.601 C 824.257 563.261 821.947 563.921 819.567 564.601 C 818.86 558.065 819.93 552.483 821.88 546.289 C 822.093 545.608 822.306 544.926 822.525 544.224 C 823.804 540.348 825.368 537.029 827.567 533.601 C 828.313 532.172 829.044 530.735 829.755 529.289 C 830.099 528.592 830.443 527.894 830.798 527.176 C 831.179 526.396 831.179 526.396 831.567 525.601 C 832.227 525.601 832.887 525.601 833.567 525.601 C 833.815 525.024 834.062 524.446 834.317 523.851 C 835.881 521.036 836.928 519.515 839.567 517.601 C 846.042 515.929 850.742 516.435 856.567 519.601 C 854.529 515.541 854.529 515.541 850.567 513.601 C 845.388 513.377 839.924 513.195 835.368 515.914 C 833.531 517.698 832.057 519.519 830.567 521.601 C 830.048 522.264 829.528 522.927 828.993 523.609 C 818.555 537.86 815.065 557.886 811.179 574.822 C 810.982 575.676 810.786 576.53 810.583 577.41 C 810.411 578.171 810.238 578.932 810.061 579.716 C 809.567 581.601 809.567 581.601 808.567 583.601 C 808.201 585.909 807.873 588.223 807.567 590.539 C 806.676 597.277 806.676 597.277 805.567 600.601 C 805.42 602.227 805.32 603.857 805.251 605.488 C 805.209 606.426 805.167 607.364 805.124 608.33 C 805.065 609.795 805.065 609.795 805.005 611.289 C 804.962 612.277 804.919 613.265 804.874 614.283 C 804.768 616.722 804.666 619.162 804.567 621.601 C 805.227 621.601 805.887 621.601 806.567 621.601 C 807.557 623.911 808.547 626.221 809.567 628.601 C 810.227 628.601 810.887 628.601 811.567 628.601 C 811 624.472 811 624.472 809.567 620.601 C 808.617 608.121 809.06 595.648 812.567 583.601 C 812.897 583.601 813.227 583.601 813.567 583.601 C 813.735 588.637 813.538 593.155 812.567 598.101 C 811.131 605.909 811.399 613.697 811.567 621.601 C 812.227 621.601 812.887 621.601 813.567 621.601 C 813.817 629.226 813.817 629.226 811.567 632.601 C 813.547 632.601 815.527 632.601 817.567 632.601 C 817.567 631.941 817.567 631.281 817.567 630.601 C 818.887 630.931 820.207 631.261 821.567 631.601 C 820.652 632.156 819.737 632.71 818.794 633.281 C 817.593 634.013 816.393 634.744 815.192 635.476 C 814.288 636.024 814.288 636.024 813.364 636.582 C 810.862 638.111 808.649 639.52 806.567 641.601 C 801.685 641.466 798.92 638.954 795.567 635.601 C 794.844 633.621 794.165 631.623 793.567 629.601 C 792.577 629.271 791.587 628.941 790.567 628.601 C 788.811 617.651 788.673 607.045 791.774 596.359 C 792.78 592.863 793.414 589.338 794.04 585.758 C 794.599 583.474 795.519 581.698 796.567 579.601 C 797.047 577.862 797.48 576.11 797.88 574.351 C 799.216 568.804 800.849 563.386 802.59 557.957 C 803.99 553.555 805.256 549.134 806.447 544.672 C 812.647 521.499 812.647 521.499 820.567 513.601 C 821.227 513.601 821.887 513.601 822.567 513.601 C 822.815 513.024 823.062 512.446 823.317 511.851 C 829.097 501.447 843.011 498.693 853.63 502.914 Z" fill="#FBAB0C" transform="matrix(0.9999999999999999, 0, 0, 0.9999999999999999, 0, 0)"></path>
  <path d="M 864.567 602.601 C 865.227 602.601 865.887 602.601 866.567 602.601 C 866.567 604.251 866.567 605.901 866.567 607.601 C 865.907 607.601 865.247 607.601 864.567 607.601 C 864.567 608.591 864.567 609.581 864.567 610.601 C 865.227 610.931 865.887 611.261 866.567 611.601 C 868.968 615.203 869.005 618.11 869.192 622.288 C 869.25 623.341 869.25 623.341 869.309 624.415 C 869.403 626.143 869.486 627.872 869.567 629.601 C 869.897 628.281 870.227 626.961 870.567 625.601 C 872.877 625.931 875.187 626.261 877.567 626.601 C 876.301 630.572 874.858 634.34 873.106 638.12 C 872.634 639.143 872.162 640.166 871.676 641.22 C 871.187 642.274 870.697 643.328 870.192 644.413 C 869.225 646.503 868.259 648.593 867.294 650.683 C 866.829 651.681 866.363 652.68 865.884 653.709 C 864.344 657.09 862.918 660.513 861.537 663.963 C 860.567 665.601 860.567 665.601 857.567 666.601 C 852.511 667.098 852.511 667.098 849.567 665.601 C 847.286 662.278 845.952 658.629 844.496 654.885 C 842.588 650.195 840.384 645.631 838.254 641.038 C 837.379 639.143 836.508 637.246 835.641 635.347 C 835.266 634.529 834.89 633.711 834.503 632.868 C 833.643 630.785 833.045 628.799 832.567 626.601 C 834.877 625.941 837.187 625.281 839.567 624.601 C 839.897 626.251 840.227 627.901 840.567 629.601 C 842.768 626.299 842.751 625.513 842.567 621.726 C 842.476 617.811 842.837 615.169 844.567 611.601 C 844.567 610.611 844.567 609.621 844.567 608.601 C 845.227 608.931 845.887 609.261 846.567 609.601 C 852.211 609.977 855.665 609.72 860.567 606.601 C 861.919 605.286 863.257 603.957 864.567 602.601 Z" fill="#C0D5F2" transform="matrix(0.9999999999999999, 0, 0, 0.9999999999999999, 0, 0)"></path>
  <path d="M 877.567 627.601 C 889.578 629.4 901.499 637.821 909.43 646.683 C 909.805 647.316 910.18 647.949 910.567 648.601 C 909.567 651.601 911.06 650.855 908.462 652.503 C 893.954 659.733 876.225 669.116 859.821 668.587 C 862.865 660.019 866.871 648.64 870.754 640.413 C 871.087 639.708 871.42 639.002 871.762 638.275 C 873.526 634.596 875.396 631.062 877.567 627.601 Z" fill="#212272" transform="matrix(0.9999999999999999, 0, 0, 0.9999999999999999, 0, 0)"></path>
  <path d="M 831.567 627.601 C 836.242 636.607 840.577 645.706 844.567 655.038 C 844.965 655.968 846.482 656.898 846.892 657.856 C 849.687 664.458 850.06 666.697 850.06 667.84 C 838.437 667.281 827.443 665.265 817.805 660.206 C 812.12 657.222 806.144 651.963 800.313 648.601 C 800.947 643.3 804.296 641.048 808.235 637.925 C 814.602 633.291 823.634 627.601 831.567 627.601 Z" fill="#212170" transform="matrix(0.9999999999999999, 0, 0, 0.9999999999999999, 0, 0)"></path>
  <path d="M 853.442 513.851 C 855.76 515.76 856.263 516.663 856.567 519.601 C 851.817 518.726 851.817 518.726 849.567 517.601 C 845.215 517.35 841.075 517.322 837.645 520.23 C 836.055 522.126 836.055 522.126 834.723 524.105 C 834.342 524.598 833.96 525.092 833.567 525.601 C 832.907 525.601 832.247 525.601 831.567 525.601 C 831.299 526.467 831.031 527.333 830.754 528.226 C 829.567 531.601 829.567 531.601 828.129 534.413 C 826.534 537.668 825.418 540.869 824.325 544.316 C 823.62 546.44 822.802 548.473 821.942 550.538 C 820.179 555.107 819.856 559.745 819.567 564.601 C 821.547 563.941 823.527 563.281 825.567 562.601 C 825.897 560.951 826.227 559.301 826.567 557.601 C 827.227 557.601 827.887 557.601 828.567 557.601 C 828.237 559.911 827.907 562.221 827.567 564.601 C 825.587 565.261 823.607 565.921 821.567 566.601 C 821.237 568.911 820.907 571.221 820.567 573.601 C 819.907 573.601 819.247 573.601 818.567 573.601 C 818.237 572.941 817.907 572.281 817.567 571.601 C 812.722 584.152 810.211 596.063 810.317 609.538 C 810.309 610.552 810.302 611.566 810.294 612.611 C 810.296 613.586 810.299 614.561 810.301 615.566 C 810.304 616.438 810.306 617.311 810.308 618.21 C 810.585 620.771 811.396 622.336 812.567 624.601 C 812.192 627.351 812.192 627.351 811.567 629.601 C 809.629 628.976 809.629 628.976 807.567 627.601 C 806.817 624.476 806.817 624.476 806.567 621.601 C 805.907 621.601 805.247 621.601 804.567 621.601 C 804.508 618.268 804.473 614.934 804.442 611.601 C 804.425 610.666 804.408 609.732 804.391 608.769 C 804.356 603.754 804.67 599.377 806.068 594.561 C 806.617 592.406 806.849 590.334 807.051 588.12 C 807.49 583.662 808.537 579.572 809.817 575.288 C 811.5 569.489 813.054 563.684 814.451 557.808 C 816.463 549.375 818.744 541.428 822.567 533.601 C 822.933 532.818 823.299 532.036 823.676 531.23 C 827.377 523.916 832.583 516.387 840.192 512.976 C 849.142 511.981 849.142 511.981 853.442 513.851 Z" fill="#FEC751" transform="matrix(0.9999999999999999, 0, 0, 0.9999999999999999, 0, 0)"></path>
  <path d="M 839.567 624.601 C 840.214 626.684 840.86 628.767 841.504 630.851 C 841.864 632.011 842.224 633.171 842.594 634.366 C 843.567 637.601 843.567 637.601 844.071 639.956 C 844.235 640.499 844.398 641.042 844.567 641.601 C 845.883 642.3 847.217 642.968 848.567 643.601 C 848.897 644.591 849.227 645.581 849.567 646.601 C 850.983 646.655 852.4 646.694 853.817 646.726 C 855 646.761 855 646.761 856.208 646.796 C 858.824 646.58 860.355 645.994 862.567 644.601 C 866.584 638.884 868.418 632.176 870.567 625.601 C 872.877 625.931 875.187 626.261 877.567 626.601 C 876.301 630.572 874.858 634.34 873.106 638.12 C 872.634 639.143 872.162 640.166 871.676 641.22 C 870.942 642.801 870.942 642.801 870.192 644.413 C 869.225 646.503 868.259 648.593 867.294 650.683 C 866.829 651.681 866.363 652.68 865.884 653.709 C 864.344 657.09 862.918 660.513 861.537 663.963 C 860.567 665.601 860.567 665.601 857.567 666.601 C 852.511 667.098 852.511 667.098 849.567 665.601 C 847.286 662.278 845.952 658.629 844.496 654.885 C 842.588 650.195 840.384 645.631 838.254 641.038 C 837.379 639.143 836.508 637.246 835.641 635.347 C 835.266 634.529 834.89 633.711 834.503 632.868 C 833.643 630.785 833.045 628.799 832.567 626.601 C 837.317 624.601 837.317 624.601 839.567 624.601 Z" fill="#F5F7FA" transform="matrix(0.9999999999999999, 0, 0, 0.9999999999999999, 0, 0)"></path>
  <path d="M 866.567 517.601 C 873.267 516.896 873.267 516.896 876.446 518.62 C 880.654 522.038 883.493 526.146 886.305 530.745 C 887.442 532.742 887.442 532.742 889.567 533.601 C 892.282 538.524 894.106 543.907 895.758 549.265 C 896.594 551.79 896.594 551.79 898.036 554.87 C 899.705 558.711 900.626 562.58 901.504 566.663 C 902.994 573.323 904.73 579.829 906.735 586.355 C 908.505 593.261 908.749 600.074 908.754 607.163 C 908.767 607.975 908.779 608.786 908.792 609.622 C 908.807 615.966 908.203 621.12 904.629 626.538 C 903.949 627.219 903.268 627.9 902.567 628.601 C 901.577 628.601 900.587 628.601 899.567 628.601 C 900.155 625.341 900.989 622.391 902.129 619.288 C 907.762 600.559 900.522 579.126 894.629 561.351 C 894.282 560.276 893.935 559.201 893.577 558.093 C 893.234 557.059 892.892 556.025 892.54 554.96 C 892.233 554.027 891.926 553.093 891.61 552.131 C 890.555 549.572 889.237 547.788 887.567 545.601 C 886.834 543.287 886.156 540.955 885.567 538.601 C 884.907 538.601 884.247 538.601 883.567 538.601 C 883.361 537.776 883.154 536.951 882.942 536.101 C 880.763 530.555 877.547 525.921 872.567 522.601 C 870.579 521.899 868.58 521.227 866.567 520.601 C 866.567 519.611 866.567 518.621 866.567 517.601 Z" fill="#FEC74F" transform="matrix(0.9999999999999999, 0, 0, 0.9999999999999999, 0, 0)"></path>
  <path d="M 879.567 632.601 C 881.88 632.601 881.88 632.601 884.567 633.601 C 887.399 638.237 887.567 642.156 887.567 647.601 C 883.607 648.261 879.647 648.921 875.567 649.601 C 876.392 651.024 877.217 652.447 878.067 653.914 C 880.567 658.226 880.567 658.226 880.567 661.601 C 881.557 661.931 869.309 665.995 861.567 665.601 C 862.498 663.036 863.437 660.474 864.38 657.914 C 864.771 656.832 864.771 656.832 865.171 655.728 C 868.286 647.304 868.286 647.304 870.567 644.601 C 873.485 644.113 873.485 644.113 876.755 644.289 C 877.841 644.334 878.928 644.379 880.047 644.425 C 881.295 644.512 881.295 644.512 882.567 644.601 C 882.35 643.986 882.134 643.371 881.911 642.738 C 881.632 641.929 881.354 641.121 881.067 640.289 C 880.789 639.488 880.51 638.687 880.223 637.863 C 879.567 635.601 879.567 635.601 879.567 632.601 Z" fill="#080760" transform="matrix(0.9999999999999999, 0, 0, 0.9999999999999999, 0, 0)"></path>
  <path d="M 884.567 586.601 C 885.887 586.931 887.207 587.261 888.567 587.601 C 889.724 593.084 889.681 598.404 889.629 603.976 C 889.625 604.903 889.62 605.83 889.616 606.784 C 889.604 609.057 889.588 611.329 889.567 613.601 C 888.907 613.601 888.247 613.601 887.567 613.601 C 887.423 614.88 887.278 616.158 887.129 617.476 C 886.861 619.858 886.645 621.445 885.567 623.601 C 884.247 623.601 882.927 623.601 881.567 623.601 C 881.71 622.038 881.856 620.476 882.004 618.913 C 882.086 618.043 882.167 617.173 882.251 616.277 C 882.567 613.601 882.567 613.601 883.067 611.265 C 883.571 608.578 883.772 606.03 883.883 603.3 C 883.925 602.324 883.967 601.347 884.01 600.341 C 884.05 599.334 884.089 598.326 884.129 597.288 C 884.173 596.262 884.216 595.235 884.26 594.177 C 884.366 591.652 884.468 589.126 884.567 586.601 Z" fill="#FEC652" transform="matrix(0.9999999999999999, 0, 0, 0.9999999999999999, 0, 0)"></path>
  <path d="M 831.567 630.601 C 830.968 634.796 829.992 638.611 828.567 642.601 C 829.182 642.638 829.797 642.676 830.43 642.714 C 831.239 642.78 832.047 642.846 832.88 642.914 C 833.68 642.972 834.481 643.03 835.305 643.089 C 837.567 643.601 837.567 643.601 840.567 646.601 C 838.917 651.221 837.267 655.841 835.567 660.601 C 833.587 660.601 831.607 660.601 829.567 660.601 C 829.237 659.941 828.907 659.281 828.567 658.601 C 829.557 658.601 830.547 658.601 831.567 658.601 C 831.784 656.714 831.784 656.714 832.005 654.789 C 832.304 652.174 832.725 650.127 833.567 647.601 C 830.267 646.941 826.967 646.281 823.567 645.601 C 824.12 641.571 824.723 637.581 825.567 633.601 C 826.227 633.601 826.887 633.601 827.567 633.601 C 827.567 632.941 827.567 632.281 827.567 631.601 C 829.567 630.601 829.567 630.601 831.567 630.601 Z" fill="#090860" transform="matrix(0.9999999999999999, 0, 0, 0.9999999999999999, 0, 0)"></path>
  <path d="M 823.567 589.601 C 825.217 589.931 826.867 590.261 828.567 590.601 C 828.559 591.583 828.559 591.583 828.551 592.585 C 828.53 595.59 828.517 598.596 828.504 601.601 C 828.496 602.631 828.488 603.661 828.479 604.722 C 828.461 610.451 828.702 615.936 829.567 621.601 C 828.247 621.601 826.927 621.601 825.567 621.601 C 822.984 615.633 822.142 610.945 822.317 604.476 C 822.322 603.704 822.327 602.932 822.333 602.136 C 822.391 597.862 822.734 593.808 823.567 589.601 Z" fill="#FEC853" transform="matrix(0.9999999999999999, 0, 0, 0.9999999999999999, 0, 0)"></path>
  <path d="M 842.567 598.601 C 847.567 600.601 847.567 600.601 849.942 601.726 C 855.491 603.576 860.225 602.686 865.567 600.601 C 862.94 605.577 859.98 608.797 854.567 610.601 C 847.725 611.035 847.725 611.035 844.067 609.663 C 841.622 606.301 842.264 602.618 842.567 598.601 Z" fill="#242974" transform="matrix(0.9999999999999999, 0, 0, 0.9999999999999999, 0, 0)"></path>
  <path d="M 868.567 647.601 C 872.281 650.803 873.899 654.015 875.567 658.601 C 875.567 659.591 875.567 660.581 875.567 661.601 C 876.887 661.931 878.207 662.261 879.567 662.601 C 874.053 666.277 867.968 665.707 861.567 665.601 C 862.545 662.976 863.524 660.351 864.505 657.726 C 864.782 656.98 865.06 656.233 865.346 655.464 C 867.454 649.828 867.454 649.828 868.567 647.601 Z" fill="#1F1F6E" transform="matrix(0.9999999999999999, 0, 0, 0.9999999999999999, 0, 0)"></path>
  <path d="M 815.567 558.601 C 816.227 558.601 816.887 558.601 817.567 558.601 C 817.302 566.428 816.326 572.678 812.567 579.601 C 812.237 579.601 811.907 579.601 811.567 579.601 C 811.079 571.587 811.579 565.652 815.567 558.601 Z" fill="#FECC60" transform="matrix(0.9999999999999999, 0, 0, 0.9999999999999999, 0, 0)"></path>
  <path d="M 842.567 598.601 C 846.026 599.85 848.714 601.276 851.567 603.601 C 850.907 603.601 850.247 603.601 849.567 603.601 C 849.567 604.921 849.567 606.241 849.567 607.601 C 847.576 607.982 845.574 608.314 843.567 608.601 C 842.567 607.601 842.567 607.601 842.469 605.534 C 842.481 604.711 842.493 603.887 842.504 603.038 C 842.513 602.212 842.523 601.386 842.532 600.534 C 842.543 599.896 842.555 599.258 842.567 598.601 Z" fill="#25225D" transform="matrix(0.9999999999999999, 0, 0, 0.9999999999999999, 0, 0)"></path>
  <path d="M 842.567 608.601 C 843.557 609.921 844.547 611.241 845.567 612.601 C 844.907 612.601 844.846 613.559 844.166 613.559 C 843.836 615.209 842.907 615.901 842.567 617.601 C 842.237 617.601 841.907 617.601 841.567 617.601 C 841.469 611.449 841.469 611.449 841.567 609.601 C 841.897 609.271 842.227 608.941 842.567 608.601 Z" fill="#CCD3E7" transform="matrix(0.9999999999999999, 0, 0, 0.9999999999999999, 0, 0)"></path>
</svg>