<svg viewBox="-556.212 389.443 203.005 208.624" xmlns="http://www.w3.org/2000/svg">
  <ellipse style="stroke-width: 10px; stroke-dashoffset: -10px; stroke-miterlimit: 9.29; paint-order: fill; stroke: rgb(155, 175, 248); fill: rgb(228, 229, 229);" cx="-454.852" cy="494.031" rx="93.708" ry="97.119" transform="matrix(1, 0, 0, 1, -1.1368683772161603e-13, 0)"></ellipse>
  <path d="M -417.197 552.211 C -412.765 553.097 -409.041 557.166 -405.674 559.705 C -404.988 560.207 -400.62 565.212 -400.28 566.912 C -402.147 568.069 -410.223 575.536 -416.223 576.536 C -416.223 568.616 -417.197 560.371 -417.197 552.211 Z" fill="#F8FDFD" transform="matrix(1, 0, 0, 1, -1.1368683772161603e-13, 0)"></path>
  <path d="M -487.462 550.187 C -487.462 558.767 -488.223 563.696 -488.223 572.536 C -491.794 571.107 -495.12 569.641 -498.535 567.911 C -499.418 567.465 -500.301 567.019 -501.211 566.559 C -501.875 566.221 -502.539 565.884 -503.223 565.536 C -503.223 564.546 -503.63 563.297 -504.31 563.297 C -503.816 559.086 -494.391 551.741 -491.527 551.361 C -491.527 550.701 -488.462 550.187 -487.462 550.187 Z" fill="#FAFDFD" transform="matrix(1, 0, 0, 1, -1.1368683772161603e-13, 0)"></path>
  <path d="M -431.809 432.343 C -423.655 438.211 -419.622 447.069 -417.559 456.718 C -416.53 467.409 -416.253 487.021 -422.246 496.343 C -424.559 498.718 -424.559 498.718 -427.469 499.988 C -431.224 502.09 -432.312 504.011 -434.309 507.781 C -437.441 513.6 -437.441 513.6 -439.559 515.718 C -440.363 523.967 -439.302 532.493 -438.559 540.718 C -439.219 540.718 -439.879 540.718 -440.559 540.718 C -441.739 536.87 -441.891 532.96 -442.121 528.968 C -442.165 528.271 -442.208 527.573 -442.252 526.855 C -442.358 525.143 -442.459 523.43 -442.559 521.718 C -443.219 521.718 -443.879 521.718 -444.559 521.718 C -445.054 523.203 -445.054 523.203 -445.559 524.718 C -446.219 524.718 -446.879 524.718 -447.559 524.718 C -447.559 525.378 -447.559 526.038 -447.559 526.718 C -453.811 529.78 -458.702 530.57 -465.559 528.718 C -465.547 529.428 -465.536 530.139 -465.524 530.87 C -465.515 531.789 -465.506 532.709 -465.496 533.656 C -465.485 534.572 -465.473 535.489 -465.461 536.433 C -465.559 538.718 -465.559 538.718 -466.559 539.718 C -466.791 541.233 -466.971 542.756 -467.121 544.281 C -467.247 545.52 -467.247 545.52 -467.375 546.784 C -467.436 547.423 -467.496 548.061 -467.559 548.718 C -467.889 548.718 -468.219 548.718 -468.559 548.718 C -468.656 542.73 -468.675 536.805 -468.196 530.835 C -468.102 529.581 -468.102 529.581 -468.006 528.301 C -467.877 526.647 -467.73 524.994 -467.563 523.344 C -467.152 517.873 -467.891 515.079 -471.559 510.718 C -472.281 510.058 -473.003 509.398 -473.746 508.718 C -476.074 506.149 -476.25 504.112 -476.559 500.718 C -478.415 500.687 -478.415 500.687 -480.309 500.656 C -483.981 500.161 -484.43 499.863 -487.059 496.906 C -489.072 492.643 -488.83 488.407 -488.602 483.781 C -488.553 480.328 -489.06 477.133 -489.559 473.718 C -490.38 460.119 -489.739 447.404 -480.407 436.585 C -467.584 423.627 -447.069 423.232 -431.809 432.343 Z" fill="#C0D3F3" transform="matrix(1, 0, 0, 1, -1.1368683772161603e-13, 0)"></path>
  <path d="M -431.809 432.343 C -423.66 438.207 -419.612 447.071 -417.559 456.718 C -416.685 466.184 -417.972 475.397 -419.559 484.718 C -422.559 484.718 -422.559 484.718 -425.559 483.718 C -425.615 482.069 -425.615 482.069 -425.672 480.386 C -426.03 471.791 -426.752 463.924 -429.559 455.718 C -430.054 454.233 -430.054 454.233 -430.559 452.718 C -431.289 453.007 -432.018 453.296 -432.77 453.593 C -447.61 458.87 -461.761 457.65 -476.559 452.718 C -480.131 462.461 -480.726 472.451 -481.559 482.718 C -483.539 483.378 -485.519 484.038 -487.559 484.718 C -491.018 470.417 -491.802 454.103 -483.981 441.093 C -471.74 424.331 -449.271 421.918 -431.809 432.343 Z" fill="#222272" transform="matrix(1, 0, 0, 1, -1.1368683772161603e-13, 0)"></path>
  <path d="M -468.889 545.221 C -468.621 545.836 -437.559 546.078 -437.559 544.718 C -428.746 545.452 -427.485 544.934 -424.298 548.2 C -423.941 550.847 -424.263 553.289 -424.34 555.929 C -424.346 556.657 -423.6 557.234 -423.606 557.984 C -423.628 560.308 -423.376 562.856 -423.427 565.18 C -423.447 566.756 -423.315 568.106 -423.332 569.682 C -423.376 573.544 -423.618 576.263 -423.7 580.124 C -432.553 583.961 -456.06 585.009 -457.219 585.031 C -466.066 585.071 -472.534 583.652 -481.559 581.718 C -481.559 570.168 -482.81 560.623 -482.81 548.723 C -474.81 546.723 -472.889 545.221 -468.889 545.221 Z" fill="#FAFCFD" transform="matrix(1, 0, 0, 1, -1.1368683772161603e-13, 0)"></path>
  <path d="M -442.559 521.718 C -440.909 525.018 -441.176 528.709 -440.996 532.343 C -440.953 533.145 -440.91 533.947 -440.866 534.773 C -440.759 536.754 -440.659 538.736 -440.559 540.718 C -439.899 540.718 -439.239 540.718 -438.559 540.718 C -438.114 549.478 -437.444 548.975 -440.889 553.215 C -441.717 554.556 -443.559 555.038 -443.559 555.718 C -450.489 558.422 -455.884 558.241 -462.762 555.765 C -465.133 554.383 -466.198 553.104 -467.559 550.718 C -467.887 547.956 -466.559 530.718 -465.559 528.718 C -464.846 528.741 -464.133 528.764 -463.399 528.788 C -457.675 528.896 -452.961 528.639 -447.559 526.718 C -447.559 526.058 -447.559 525.398 -447.559 524.718 C -445.021 521.718 -445.021 521.718 -442.559 521.718 Z" fill="#BFD4F4" transform="matrix(1, 0, 0, 1, -1.1368683772161603e-13, 0)"></path>
  <path d="M -489.559 553.718 C -489.559 562.298 -488.798 570.117 -488.798 578.957 C -490.935 578.102 -496.631 575.406 -501.007 572.891 C -503.944 571.203 -506.286 569.262 -506.559 569.262 C -506.065 565.051 -505.027 563.702 -501.809 560.968 C -501.134 560.375 -500.458 559.782 -499.762 559.171 C -497.332 557.568 -492.559 555.398 -492.559 554.718 C -490.559 553.718 -490.559 553.718 -489.559 553.718 Z" fill="#FAFDFD" transform="matrix(1, 0, 0, 1, -1.1368683772161603e-13, 0)"></path>
  <path d="M -482.559 549.718 C -482.559 560.278 -482.559 570.838 -482.559 581.718 C -484.869 580.728 -487.179 579.738 -489.559 578.718 C -489.559 569.808 -489.559 560.898 -489.559 551.718 C -484.559 549.718 -484.559 549.718 -482.559 549.718 Z" fill="#1F6DD1" transform="matrix(1, 0, 0, 1, -1.1368683772161603e-13, 0)"></path>
  <path d="M -476.559 440.718 C -472.855 441.181 -469.479 441.74 -465.871 442.745 C -461.395 443.883 -457.157 443.98 -452.559 443.906 C -451.426 443.905 -451.426 443.905 -450.27 443.904 C -445.292 443.865 -440.487 443.418 -435.559 442.718 C -435.559 442.058 -435.559 441.398 -435.559 440.718 C -433.909 440.718 -432.259 440.718 -430.559 440.718 C -430.684 442.531 -430.684 442.531 -431.559 444.718 C -438.513 449.085 -445.924 448.923 -453.871 448.968 C -454.771 448.989 -455.67 449.009 -456.596 449.031 C -462.815 449.066 -467.792 447.996 -473.559 445.718 C -474.549 445.388 -475.539 445.058 -476.559 444.718 C -476.559 443.398 -476.559 442.078 -476.559 440.718 Z" fill="#09065F" transform="matrix(1, 0, 0, 1, -1.1368683772161603e-13, 0)"></path>
  <path d="M -474.559 555.718 C -471.384 556.345 -469.135 557.452 -466.434 559.218 C -460.137 563.305 -455.057 563.209 -447.559 562.718 C -443.42 561.837 -440.352 560.511 -437.309 557.468 C -436.731 556.891 -436.154 556.313 -435.559 555.718 C -433.309 555.968 -433.309 555.968 -431.559 556.718 C -431.559 557.708 -431.559 558.698 -431.559 559.718 C -432.219 559.718 -432.879 559.718 -433.559 559.718 C -433.559 560.378 -433.559 561.038 -433.559 561.718 C -442.79 567.257 -451.539 569.57 -462.332 567.077 C -465.189 566.135 -467.87 565.063 -470.559 563.718 C -470.559 563.058 -470.559 562.398 -470.559 561.718 C -471.879 561.058 -473.199 560.398 -474.559 559.718 C -474.559 558.398 -474.559 557.078 -474.559 555.718 Z" fill="#C5D6ED" transform="matrix(1, 0, 0, 1, -1.1368683772161603e-13, 0)"></path>
  <path d="M -465.559 517.718 C -464.99 518.007 -464.422 518.296 -463.836 518.593 C -458.322 521.244 -453.685 523.137 -447.571 521.034 C -445.873 520.323 -444.212 519.528 -442.559 518.718 C -443.371 521.156 -443.371 521.156 -444.559 523.718 C -445.549 524.048 -446.539 524.378 -447.559 524.718 C -447.559 525.378 -447.559 526.038 -447.559 526.718 C -452.463 529.12 -455.977 530.338 -461.559 529.718 C -464.496 528.218 -464.496 528.218 -466.559 526.718 C -466.229 523.748 -465.899 520.778 -465.559 517.718 Z" fill="#286AB8" transform="matrix(1, 0, 0, 1, -1.1368683772161603e-13, 0)"></path>
  <path d="M -468.559 433.718 C -458.989 433.718 -449.419 433.718 -439.559 433.718 C -439.229 435.038 -438.899 436.358 -438.559 437.718 C -443.418 439.338 -448.408 438.903 -453.496 438.906 C -454.594 438.918 -455.692 438.93 -456.823 438.943 C -458.407 438.946 -458.407 438.946 -460.024 438.948 C -460.989 438.953 -461.955 438.957 -462.949 438.961 C -465.63 438.711 -467.264 438.085 -469.559 436.718 C -469.229 435.728 -468.899 434.738 -468.559 433.718 Z" fill="#09075F" transform="matrix(1, 0, 0, 1, -1.1368683772161603e-13, 0)"></path>
  <path d="M -424.559 547.852 C -420.599 549.832 -421.248 549.94 -417.208 551.96 C -417.208 560.54 -416.203 568.351 -416.203 577.191 C -417.244 577.421 -417.623 577.702 -418.796 578.227 C -418.796 570.307 -419.559 561.878 -419.559 553.718 C -420.879 553.388 -422.199 553.058 -423.559 552.718 C -423.229 561.958 -422.695 570.435 -422.355 579.955 C -423.015 579.955 -422.81 580.26 -423.49 580.26 C -423.49 569.7 -424.559 558.732 -424.559 547.852 Z" fill="#3D72B0" transform="matrix(1, 0, 0, 1, -1.1368683772161603e-13, 0)"></path>
  <path d="M -482.559 548.718 C -482.559 559.278 -482.559 569.838 -482.559 580.718 C -482.889 580.718 -483.219 580.718 -483.559 580.718 C -483.889 571.148 -484.219 561.578 -484.559 551.718 C -485.879 552.048 -487.199 552.378 -488.559 552.718 C -488.559 560.638 -488.559 568.558 -488.559 576.718 C -487.239 577.378 -485.919 578.038 -484.559 578.718 C -486.209 578.388 -487.859 578.058 -489.559 577.718 C -489.559 568.808 -489.559 559.898 -489.559 550.718 C -484.559 548.718 -484.559 548.718 -482.559 548.718 Z" fill="#2A61AE" transform="matrix(1, 0, 0, 1, -1.1368683772161603e-13, 0)"></path>
  <path d="M -464.559 521.718 C -459.279 522.378 -453.999 523.038 -448.559 523.718 C -449.549 524.213 -449.549 524.213 -450.559 524.718 C -450.889 525.708 -451.219 526.698 -451.559 527.718 C -453.35 527.745 -455.142 527.764 -456.934 527.781 C -457.932 527.792 -458.929 527.804 -459.957 527.816 C -462.559 527.718 -462.559 527.718 -464.559 526.718 C -464.559 525.068 -464.559 523.418 -464.559 521.718 Z" fill="#136DCF" transform="matrix(1, 0, 0, 1, -1.1368683772161603e-13, 0)"></path>
  <path d="M -419.066 553.2 C -418.076 553.2 -419.579 562.718 -418.559 562.718 C -418.559 567.668 -417.925 572.865 -417.925 577.965 C -419.194 578.435 -420.636 579.022 -422.429 579.781 C -422.456 577.656 -422.945 573.695 -422.961 571.57 C -422.973 570.387 -423.665 554.245 -423.677 553.026 C -423.579 549.987 -419.839 554.747 -419.066 553.2 Z" fill="#166ED1" transform="matrix(1, 0, 0, 1, -1.1368683772161603e-13, 0)"></path>
  <path d="M -468.036 469.828 C -467.351 469.825 -466.666 469.821 -465.96 469.818 C -460.866 469.873 -460.866 469.873 -458.598 472.14 C -456.263 472.46 -456.263 472.46 -453.661 472.39 C -452.786 472.396 -451.91 472.401 -451.009 472.406 C -448.337 472.299 -448.337 472.299 -445.598 470.14 C -442.348 469.84 -442.348 469.84 -438.598 469.828 C -437.361 469.811 -436.123 469.794 -434.848 469.777 C -431.598 470.14 -431.598 470.14 -429.692 471.449 C -427.78 474.407 -428.129 476.736 -428.598 480.14 C -430.348 483.078 -430.348 483.078 -433.598 485.14 C -439.361 486.119 -443.964 486.272 -448.848 482.89 C -450.598 480.14 -450.598 480.14 -450.598 476.14 C -452.578 476.14 -454.558 476.14 -456.598 476.14 C -456.691 477.254 -456.691 477.254 -456.786 478.39 C -457.598 481.14 -457.598 481.14 -459.473 483.453 C -464.132 485.968 -468.42 486.025 -473.598 485.14 C -476.786 483.078 -476.786 483.078 -478.598 480.14 C -479.39 474.404 -479.39 474.404 -477.54 471.449 C -474.557 469.439 -471.503 469.746 -468.036 469.828 Z" fill="#0D1764" transform="matrix(1, 0, 0, 1, -1.1368683772161603e-13, 0)"></path>
  <path d="M -468.371 472.425 C -467.403 472.411 -466.435 472.397 -465.437 472.382 C -462.808 472.613 -462.808 472.613 -459.808 474.613 C -460.121 477.988 -460.121 477.988 -460.808 481.613 C -464.83 484.294 -468.084 484.293 -472.808 483.613 C -475.433 481.988 -475.433 481.988 -476.808 479.613 C -476.683 476.425 -476.683 476.425 -475.808 473.613 C -473.221 472.319 -471.259 472.444 -468.371 472.425 Z" fill="#AFC1E7" transform="matrix(1, 0, 0, 1, -1.1368683772161603e-13, 0)"></path>
  <path d="M -439.075 471.862 C -437.484 471.837 -437.484 471.837 -435.86 471.811 C -433.012 472.175 -433.012 472.175 -431.126 473.538 C -430.012 475.175 -430.012 475.175 -430.137 477.675 C -431.087 480.388 -431.788 481.404 -434.012 483.175 C -438.281 484.047 -441.921 483.893 -445.575 481.487 C -447.274 478.754 -447.512 477.336 -447.012 474.175 C -444.321 471.483 -442.822 471.876 -439.075 471.862 Z" fill="#B2C3EB" transform="matrix(1, 0, 0, 1, -1.1368683772161603e-13, 0)"></path>
</svg>